<svg width="14" height="14" viewBox="0 0 14 14" fill="none" xmlns="http://www.w3.org/2000/svg">
<path fill-rule="evenodd" clip-rule="evenodd" d="M1.75 7C1.75 4.10051 4.10051 1.75 7 1.75C7.41421 1.75 7.75 1.41421 7.75 1C7.75 0.585786 7.41421 0.25 7 0.25C3.27208 0.25 0.25 3.27208 0.25 7C0.25 10.7279 3.27208 13.75 7 13.75C10.7279 13.75 13.75 10.7279 13.75 7C13.75 6.58579 13.4142 6.25 13 6.25C12.5858 6.25 12.25 6.58579 12.25 7C12.25 9.8995 9.8995 12.25 7 12.25C4.10051 12.25 1.75 9.8995 1.75 7ZM8.91667 1C8.91667 1.41421 9.25245 1.75 9.66667 1.75H11.1893L6.46967 6.46967C6.17678 6.76256 6.17678 7.23744 6.46967 7.53033C6.76256 7.82322 7.23744 7.82322 7.53033 7.53033L12.25 2.81066V4.33333C12.25 4.74755 12.5858 5.08333 13 5.08333C13.4142 5.08333 13.75 4.74755 13.75 4.33333V1C13.75 0.585786 13.4142 0.25 13 0.25H9.66667C9.25245 0.25 8.91667 0.585786 8.91667 1Z" fill="#1f3e66"/>
</svg>
