<svg width="24" height="24" viewBox="0 0 24 24" fill="none" xmlns="http://www.w3.org/2000/svg">
<g clip-path="url(#clip0_4317_46653)">
<path d="M24 12C24 18.6272 18.6272 24 12 24C5.37278 24 0 18.6272 0 12C0 5.37278 5.37278 0 12 0C18.6272 0 24 5.37278 24 12Z" fill="#3E89ED"/>
<path d="M19.1692 12.965V17.9126H16.3011V13.2971C16.3011 12.1377 15.8875 11.346 14.8482 11.346C14.0565 11.346 13.5854 11.8797 13.3776 12.3957C13.3013 12.5796 13.2825 12.8355 13.2825 13.0945V17.9127H10.4134C10.4134 17.9127 10.452 10.0948 10.4134 9.28544H13.2825V10.5084C13.2773 10.5178 13.269 10.5271 13.2637 10.5365H13.2825V10.5084C13.6638 9.92149 14.3437 9.08269 15.8676 9.08269C17.755 9.08269 19.1692 10.3162 19.1692 12.965V12.965ZM7.41365 5.1272C6.43181 5.1272 5.79053 5.77165 5.79053 6.61769C5.79053 7.44593 6.41304 8.10805 7.37606 8.10805H7.39382C8.39443 8.10805 9.01694 7.44598 9.01694 6.61769C8.99813 5.77169 8.39443 5.1272 7.41365 5.1272V5.1272ZM5.96078 17.9127H8.82787V9.28544H5.96078V17.9127V17.9127Z" fill="#F2F2F2"/>
</g>
<defs>
<clipPath id="clip0_4317_46653">
<rect width="24" height="24" fill="white"/>
</clipPath>
</defs>
</svg>
