<svg width="24" height="24" viewBox="0 0 24 24" fill="none" xmlns="http://www.w3.org/2000/svg">
<path d="M21.4688 4.922H8.8125C8.39766 4.922 8.0625 5.25715 8.0625 5.672V11.2032H2.53125C2.11641 11.2032 1.78125 11.5384 1.78125 11.9532V18.3282C1.78125 18.7431 2.11641 19.0782 2.53125 19.0782H15.1875C15.6023 19.0782 15.9375 18.7431 15.9375 18.3282V12.797H21.4688C21.8836 12.797 22.2188 12.4618 22.2188 12.047V5.672C22.2188 5.25715 21.8836 4.922 21.4688 4.922ZM9.65625 6.51575H14.3438V11.2032H9.65625V6.51575ZM8.0625 17.4845H3.375V12.797H8.0625V17.4845ZM14.3438 17.4845H9.65625V12.797H14.3438V17.4845ZM20.625 11.2032H15.9375V6.51575H20.625V11.2032Z" fill="#3F415E"/>
</svg>
