<svg width="43" height="43" viewBox="0 0 43 43" fill="none" xmlns="http://www.w3.org/2000/svg">
<path fill-rule="evenodd" clip-rule="evenodd" d="M19.2623 2.62668L19.0802 2.62667C15.9335 2.62657 13.3096 2.62649 11.2265 2.90655C9.02781 3.20215 7.04274 3.85241 5.44758 5.44758C3.85241 7.04274 3.20215 9.02781 2.90655 11.2265C2.62649 13.3096 2.62657 15.9335 2.62667 19.0802L2.62668 19.2623V22.7645L2.62667 22.9467C2.62657 26.0934 2.62649 28.7173 2.90655 30.8004C3.20215 32.999 3.85241 34.9841 5.44758 36.5793C7.04274 38.1744 9.02781 38.8247 11.2265 39.1203C13.3095 39.4004 15.9334 39.4003 19.0799 39.4002H19.0801L19.2623 39.4002H22.7645L22.9467 39.4002H22.9469C26.0935 39.4003 28.7174 39.4004 30.8004 39.1203C32.999 38.8247 34.9841 38.1744 36.5793 36.5793C38.1744 34.9841 38.8247 32.999 39.1203 30.8004C39.4004 28.7174 39.4003 26.0935 39.4002 22.9469V22.9467L39.4002 22.7645V19.2623C39.4002 17.8116 38.2242 16.6356 36.7735 16.6356C35.3228 16.6356 34.1468 17.8116 34.1468 19.2623V22.7645C34.1468 26.1407 34.1412 28.4087 33.9138 30.1004C33.6965 31.7165 33.321 32.4082 32.8646 32.8646C32.4082 33.321 31.7165 33.6965 30.1004 33.9138C28.4087 34.1412 26.1407 34.1468 22.7645 34.1468H19.2623C15.8861 34.1468 13.6182 34.1412 11.9265 33.9138C10.3103 33.6965 9.61866 33.321 9.16226 32.8646C8.70586 32.4082 8.33034 31.7165 8.11306 30.1004C7.88561 28.4087 7.88004 26.1407 7.88004 22.7645V19.2623C7.88004 15.8861 7.88561 13.6182 8.11306 11.9265C8.33034 10.3103 8.70586 9.61866 9.16226 9.16226C9.61866 8.70586 10.3103 8.33034 11.9265 8.11306C13.6182 7.88561 15.8861 7.88004 19.2623 7.88004H28.0179C29.4686 7.88004 30.6446 6.70403 30.6446 5.25336C30.6446 3.80268 29.4686 2.62668 28.0179 2.62668H19.2623ZM38.6308 10.6129C39.6566 9.58716 39.6566 7.92403 38.6308 6.89825C37.6051 5.87247 35.9419 5.87247 34.9162 6.89825L21.0134 20.801L17.6174 17.405C16.5916 16.3792 14.9285 16.3792 13.9027 17.405C12.8769 18.4307 12.8769 20.0939 13.9027 21.1197L19.1561 26.373C19.6487 26.8656 20.3168 27.1423 21.0134 27.1423C21.7101 27.1423 22.3782 26.8656 22.8708 26.373L38.6308 10.6129Z" fill="#323A46"/>
</svg>
