<svg width="1137" height="635" viewBox="0 0 1137 635" fill="none" xmlns="http://www.w3.org/2000/svg">
<path d="M572.148 635C880.455 635 1130.39 617.418 1130.39 595.729C1130.39 574.04 880.455 556.458 572.148 556.458C263.842 556.458 13.9094 574.04 13.9094 595.729C13.9094 617.418 263.842 635 572.148 635Z" fill="#F2F2F2"/>
<path d="M550.752 165.812C459.8 165.812 394.497 227.819 394.497 372.502C394.497 536.477 459.8 579.882 550.752 579.882C641.705 579.882 710.898 532.343 710.898 372.502C710.898 201.638 641.705 165.812 550.752 165.812ZM551.35 525.454C488.355 525.454 455.443 486.181 455.443 372.608C455.443 272.397 489.702 219.551 552.698 219.551C615.693 219.551 649.952 254.264 649.952 372.608C649.952 483.318 614.346 525.454 551.35 525.454Z" fill="#2F2E41"/>
<path d="M340.035 465.513H302.43V347.841C302.43 341.591 300.094 335.596 295.935 331.177C291.776 326.757 286.135 324.275 280.253 324.275H271.442C268.529 324.275 265.645 324.884 262.955 326.068C260.264 327.253 257.819 328.989 255.76 331.177C253.701 333.365 252.067 335.963 250.953 338.822C249.838 341.682 249.264 344.746 249.264 347.841V465.513H143.194C141.012 465.513 138.867 464.914 136.967 463.774C135.067 462.633 133.476 460.99 132.35 459.004C131.224 457.018 130.6 454.756 130.538 452.439C130.477 450.121 130.98 447.825 132 445.775L244.264 219.987C245.663 217.172 246.512 214.084 246.758 210.911C247.003 207.738 246.642 204.545 245.694 201.525C244.747 198.505 243.233 195.72 241.245 193.338C239.256 190.956 236.834 189.028 234.125 187.668L227.498 184.343C222.352 181.76 216.469 181.379 211.066 183.278C205.663 185.176 201.153 189.209 198.47 194.542L61.5493 466.721C59.2177 471.356 57.9979 476.531 57.9979 481.786V481.786C57.9979 485.982 58.7758 490.138 60.287 494.015C61.7982 497.892 64.0133 501.414 66.8057 504.382C69.5981 507.349 72.9132 509.703 76.5617 511.309C80.2102 512.915 84.1206 513.741 88.0696 513.741H249.264V588.15C249.264 591.859 249.952 595.533 251.288 598.96C252.624 602.387 254.582 605.501 257.05 608.124C259.519 610.747 262.449 612.828 265.674 614.247C268.9 615.667 272.356 616.398 275.847 616.398H275.847C279.338 616.398 282.795 615.667 286.02 614.247C289.245 612.828 292.176 610.747 294.644 608.124C297.113 605.501 299.071 602.387 300.407 598.96C301.742 595.533 302.43 591.859 302.43 588.15V513.741H340.035C346.053 513.741 351.825 511.201 356.081 506.678C360.337 502.156 362.728 496.023 362.728 489.627V489.627C362.728 483.232 360.337 477.098 356.081 472.576C351.825 468.054 346.054 465.513 340.035 465.513V465.513Z" fill="#6C63FF"/>
<path d="M1036.38 465.513H998.77V347.841C998.77 341.591 996.434 335.596 992.275 331.177C988.116 326.757 982.475 324.275 976.593 324.275H967.781C964.869 324.275 961.985 324.884 959.295 326.068C956.604 327.253 954.159 328.989 952.1 331.177C950.041 333.365 948.407 335.963 947.293 338.822C946.178 341.682 945.605 344.746 945.605 347.841V465.513H839.534C837.352 465.513 835.206 464.914 833.307 463.774C831.407 462.633 829.816 460.99 828.69 459.004C827.564 457.018 826.94 454.756 826.878 452.439C826.817 450.121 827.32 447.825 828.34 445.775L940.604 219.987C942.003 217.172 942.852 214.084 943.098 210.911C943.343 207.738 942.982 204.545 942.034 201.525C941.087 198.505 939.573 195.72 937.585 193.338C935.596 190.956 933.174 189.028 930.465 187.668L923.838 184.343C918.692 181.76 912.809 181.379 907.406 183.278C902.003 185.176 897.493 189.209 894.81 194.542L757.889 466.721C755.558 471.356 754.338 476.531 754.338 481.786V481.786C754.338 490.261 757.506 498.389 763.146 504.382C768.785 510.374 776.434 513.741 784.41 513.741H945.605V588.15C945.605 595.642 948.405 602.827 953.39 608.124C958.376 613.422 965.137 616.398 972.187 616.398V616.398C979.237 616.398 985.999 613.422 990.984 608.124C995.969 602.827 998.77 595.642 998.77 588.15V513.741H1036.37C1042.39 513.741 1048.17 511.201 1052.42 506.678C1056.68 502.156 1059.07 496.023 1059.07 489.627V489.627C1059.07 483.232 1056.68 477.098 1052.42 472.576C1048.17 468.054 1042.39 465.513 1036.38 465.513Z" fill="#6C63FF"/>
<path d="M350.409 451.734H312.804V334.061C312.804 330.967 312.23 327.902 311.116 325.043C310.001 322.184 308.368 319.586 306.308 317.398C304.249 315.209 301.804 313.474 299.114 312.289C296.423 311.105 293.539 310.495 290.627 310.495H281.815C275.934 310.495 270.293 312.978 266.134 317.398C261.975 321.817 259.638 327.811 259.638 334.061V451.734H153.567C151.385 451.734 149.24 451.135 147.34 449.994C145.441 448.854 143.85 447.211 142.724 445.225C141.598 443.239 140.973 440.977 140.912 438.659C140.851 436.341 141.354 434.046 142.373 431.996L254.638 206.207C256.037 203.392 256.886 200.305 257.131 197.132C257.377 193.959 257.016 190.766 256.068 187.746C255.12 184.725 253.607 181.94 251.618 179.559C249.63 177.177 247.208 175.248 244.499 173.889L237.872 170.563C232.726 167.981 226.843 167.6 221.44 169.498C216.036 171.397 211.527 175.43 208.844 180.763L71.9231 452.942C69.5915 457.577 68.3717 462.751 68.3717 468.007V468.007C68.3717 476.482 71.54 484.61 77.1795 490.602C82.819 496.595 90.4679 499.962 98.4434 499.962H259.638V574.371C259.638 578.08 260.326 581.753 261.662 585.181C262.998 588.608 264.956 591.722 267.424 594.345C269.893 596.968 272.823 599.049 276.048 600.468C279.273 601.888 282.73 602.618 286.221 602.618H286.221C293.271 602.618 300.033 599.642 305.018 594.345C310.003 589.047 312.804 581.862 312.804 574.371V499.962H350.409C353.389 499.962 356.34 499.338 359.093 498.126C361.846 496.915 364.348 495.138 366.455 492.899C368.562 490.66 370.234 488.002 371.374 485.076C372.514 482.15 373.101 479.015 373.101 475.848V475.848C373.101 472.681 372.515 469.546 371.374 466.62C370.234 463.694 368.562 461.036 366.455 458.797C364.348 456.558 361.846 454.782 359.093 453.57C356.34 452.358 353.389 451.734 350.409 451.734V451.734Z" stroke="#3F3D56" stroke-miterlimit="10"/>
<path d="M1055.83 451.734H1018.22V334.061C1018.22 327.811 1015.88 321.817 1011.73 317.398C1007.57 312.978 1001.93 310.495 996.044 310.495H987.232C984.32 310.495 981.436 311.105 978.745 312.289C976.055 313.474 973.61 315.209 971.551 317.398C969.491 319.586 967.858 322.184 966.743 325.043C965.629 327.902 965.055 330.967 965.055 334.061V451.734H858.984C856.802 451.734 854.657 451.135 852.757 449.994C850.857 448.854 849.267 447.211 848.141 445.225C847.014 443.239 846.39 440.977 846.329 438.659C846.268 436.341 846.771 434.046 847.79 431.996L960.054 206.207C961.454 203.392 962.302 200.305 962.548 197.132C962.794 193.959 962.432 190.766 961.485 187.746C960.537 184.725 959.024 181.94 957.035 179.559C955.047 177.177 952.625 175.248 949.916 173.889L943.289 170.563C938.143 167.981 932.259 167.6 926.856 169.498C921.453 171.397 916.944 175.43 914.261 180.763L777.34 452.942C775.008 457.577 773.789 462.751 773.789 468.007C773.789 476.482 776.957 484.61 782.596 490.602C788.236 496.595 795.885 499.962 803.86 499.962H965.055V574.371C965.055 581.862 967.856 589.047 972.841 594.345C977.826 599.642 984.588 602.618 991.638 602.618V602.618C998.688 602.618 1005.45 599.642 1010.43 594.345C1015.42 589.047 1018.22 581.862 1018.22 574.371V499.962H1055.83C1058.81 499.962 1061.76 499.338 1064.51 498.126C1067.26 496.915 1069.76 495.138 1071.87 492.899C1073.98 490.66 1075.65 488.002 1076.79 485.076C1077.93 482.15 1078.52 479.015 1078.52 475.848V475.848C1078.52 469.453 1076.13 463.319 1071.87 458.797C1067.62 454.275 1061.84 451.734 1055.83 451.734V451.734Z" stroke="#3F3D56" stroke-miterlimit="10"/>
<path d="M571.5 153.41C480.548 153.41 415.245 215.417 415.245 360.101C415.245 524.076 480.548 567.481 571.5 567.481C662.452 567.481 731.645 519.942 731.645 360.101C731.645 189.237 662.452 153.41 571.5 153.41ZM572.098 513.052C509.102 513.052 476.191 473.78 476.191 360.207C476.191 259.996 510.449 207.15 573.445 207.15C636.441 207.15 670.699 241.862 670.699 360.207C670.699 470.916 635.094 513.052 572.098 513.052V513.052Z" stroke="#3F3D56" stroke-miterlimit="10"/>
<path d="M609.821 185.131C608.999 188.722 605.453 191.598 601.526 193.607C593.269 197.832 583.085 199.093 573.207 199.516C570.687 199.679 568.159 199.629 565.646 199.367C560.777 198.867 556.209 196.636 552.682 193.035C552.43 192.86 552.224 192.621 552.082 192.339C551.941 192.057 551.87 191.741 551.874 191.422C551.879 191.103 551.96 190.79 552.109 190.512C552.258 190.235 552.471 190.003 552.728 189.837C557.987 183.698 566.763 179.934 575.604 177.223C582.307 175.168 593.998 169.845 601.309 170.564C608.391 171.26 610.86 180.596 609.821 185.131Z" fill="#3F3D56"/>
<path opacity="0.1" d="M609.821 185.131C608.999 188.722 605.453 191.598 601.526 193.607C593.269 197.832 583.085 199.093 573.207 199.516C570.687 199.679 568.159 199.629 565.646 199.367C560.777 198.867 556.209 196.636 552.682 193.035C552.43 192.86 552.224 192.621 552.082 192.339C551.941 192.057 551.87 191.741 551.874 191.422C551.879 191.103 551.96 190.79 552.109 190.512C552.258 190.235 552.471 190.003 552.728 189.837C557.987 183.698 566.763 179.934 575.604 177.223C582.307 175.168 593.998 169.845 601.309 170.564C608.391 171.26 610.86 180.596 609.821 185.131Z" fill="black"/>
<path opacity="0.1" d="M532.544 36.3171C532.397 36.3126 532.25 36.313 532.104 36.3129C535.211 36.5055 538.109 37.7122 540.188 39.6792C542.267 41.6462 543.365 44.2201 543.251 46.8593C543.137 49.4985 541.82 51.9973 539.577 53.83C537.333 55.6626 534.339 56.6862 531.223 56.6854C531.37 56.6944 531.515 56.7039 531.663 56.7085C534.853 56.8076 537.959 55.8285 540.297 53.9866C542.635 52.1446 544.014 49.5907 544.131 46.8867C544.248 44.1826 543.093 41.5499 540.92 39.5677C538.747 37.5856 535.734 36.4163 532.544 36.3171V36.3171Z" fill="black"/>
<path opacity="0.1" d="M477.341 34.6011C477.489 34.6057 477.635 34.6152 477.781 34.6242C474.663 34.6233 471.666 35.6469 469.421 37.4794C467.176 39.312 465.857 41.8108 465.743 44.45C465.629 47.0892 466.728 49.6631 468.809 51.6302C470.89 53.5972 473.791 54.804 476.9 54.9967C476.754 54.9966 476.607 54.997 476.46 54.9925C473.269 54.8909 470.256 53.7206 468.084 51.7387C465.911 49.7568 464.756 47.1255 464.873 44.423C464.99 41.7205 466.369 39.1679 468.707 37.3262C471.044 35.4845 474.15 34.5043 477.341 34.6011Z" fill="black"/>
<path d="M1065.54 449.807C1068.74 451.045 1072.18 451.475 1075.56 451.064C1078.95 450.652 1082.21 449.409 1085.07 447.434C1087.93 445.458 1090.31 442.804 1092.04 439.68C1093.77 436.556 1094.8 433.048 1095.03 429.432C1095.27 425.816 1094.71 422.191 1093.41 418.843C1092.1 415.495 1090.08 412.515 1087.5 410.138C1084.93 407.762 1081.87 406.053 1078.56 405.148C1075.26 404.242 1071.81 404.164 1068.47 404.92L1069.02 416.966L1063.66 406.642C1058.39 409.271 1054.33 414.012 1052.35 419.825C1051.65 421.861 1051.22 423.993 1051.08 426.156C1050.75 431.232 1051.97 436.287 1054.58 440.555C1057.19 444.822 1061.04 448.07 1065.54 449.807V449.807Z" fill="#57B894"/>
<path d="M1092.08 589.525C1090.18 579.28 1098.39 570.198 1106.49 564.294C1114.59 558.391 1124.06 552.59 1126.83 542.571C1130.8 528.173 1118.96 514.986 1109.75 503.615C1102.92 495.176 1097.05 485.906 1092.27 475.999C1090.35 472.026 1088.59 467.873 1088.08 463.442C1087.36 457.059 1089.29 450.708 1091.23 444.62C1097.71 424.34 1104.63 404.229 1112 384.288" stroke="#3F3D56" stroke-miterlimit="10"/>
<path d="M1066.44 446.705C1069.65 447.944 1073.08 448.374 1076.47 447.962C1079.86 447.55 1083.11 446.308 1085.97 444.332C1088.83 442.357 1091.22 439.702 1092.95 436.578C1094.68 433.454 1095.71 429.946 1095.94 426.33C1096.18 422.714 1095.62 419.089 1094.31 415.741C1093.01 412.393 1090.99 409.413 1088.41 407.037C1085.83 404.66 1082.77 402.952 1079.47 402.046C1076.17 401.141 1072.71 401.063 1069.38 401.818L1069.93 413.865L1064.56 403.541C1059.3 406.169 1055.23 410.911 1053.26 416.724C1052.56 418.76 1052.13 420.891 1051.99 423.055C1051.65 428.13 1052.88 433.185 1055.49 437.453C1058.1 441.721 1061.94 444.969 1066.44 446.705V446.705Z" stroke="#3F3D56" stroke-miterlimit="10"/>
<path d="M1089.38 380.128C1090.64 376.439 1092.75 373.146 1095.52 370.552C1098.29 367.959 1101.63 366.148 1105.24 365.286L1107.05 376.738L1110.41 364.71C1115.08 364.784 1119.61 366.432 1123.33 369.417C1127.06 372.402 1129.8 376.568 1131.16 381.316C1132.51 386.063 1132.42 391.146 1130.88 395.829C1129.34 400.513 1126.43 404.555 1122.59 407.372C1118.75 410.19 1114.16 411.636 1109.5 411.503C1104.83 411.371 1100.32 409.665 1096.63 406.634C1092.93 403.602 1090.24 399.4 1088.94 394.636C1087.63 389.872 1087.79 384.791 1089.38 380.128H1089.38Z" fill="#57B894"/>
<path d="M1090.59 375.992C1091.85 372.304 1093.96 369.011 1096.73 366.417C1099.5 363.823 1102.84 362.012 1106.45 361.151L1108.26 372.603L1111.62 360.575C1116.29 360.649 1120.81 362.297 1124.54 365.282C1128.27 368.266 1131.01 372.433 1132.37 377.181C1133.72 381.928 1133.62 387.01 1132.09 391.694C1130.55 396.377 1127.64 400.419 1123.8 403.237C1119.96 406.054 1115.37 407.501 1110.71 407.368C1106.04 407.235 1101.53 405.53 1097.84 402.498C1094.14 399.466 1091.45 395.265 1090.15 390.501C1088.84 385.737 1089 380.656 1090.59 375.992H1090.59Z" stroke="#3F3D56" stroke-miterlimit="10"/>
<path d="M1105.89 503.847C1110.97 505.807 1116.55 505.71 1121.58 503.575C1126.6 501.44 1130.7 497.417 1133.11 492.271C1135.52 487.126 1136.06 481.219 1134.64 475.675C1133.21 470.132 1129.92 465.34 1125.38 462.213L1122.79 471.456L1120.96 459.869C1120.94 459.86 1120.93 459.852 1120.91 459.846C1118.19 458.796 1115.3 458.325 1112.41 458.461C1109.52 458.597 1106.68 459.337 1104.06 460.639C1101.44 461.94 1099.09 463.778 1097.13 466.047C1095.18 468.315 1093.67 470.971 1092.68 473.861C1091.69 476.751 1091.25 479.82 1091.38 482.891C1091.51 485.963 1092.21 488.977 1093.44 491.761C1094.66 494.546 1096.39 497.047 1098.53 499.12C1100.67 501.194 1103.17 502.8 1105.89 503.847H1105.89Z" fill="#57B894"/>
<path d="M1106.93 499.658C1112.02 501.618 1117.6 501.521 1122.62 499.386C1127.65 497.252 1131.75 493.228 1134.16 488.083C1136.57 482.937 1137.11 477.03 1135.69 471.486C1134.26 465.943 1130.96 461.151 1126.43 458.024L1123.84 467.267L1122.01 455.68C1121.99 455.671 1121.97 455.663 1121.95 455.657C1119.24 454.607 1116.35 454.137 1113.46 454.273C1110.57 454.409 1107.73 455.149 1105.11 456.45C1102.49 457.752 1100.13 459.589 1098.18 461.858C1096.23 464.127 1094.71 466.782 1093.73 469.672C1092.74 472.562 1092.3 475.631 1092.43 478.702C1092.56 481.774 1093.26 484.788 1094.48 487.573C1095.71 490.357 1097.44 492.858 1099.58 494.932C1101.71 497.005 1104.21 498.611 1106.93 499.658H1106.93Z" stroke="#3F3D56" stroke-miterlimit="10"/>
<path d="M1082.96 542.715C1083.83 548 1086.39 552.806 1090.2 556.325C1094.01 559.845 1098.85 561.864 1103.9 562.045C1108.94 562.225 1113.9 560.556 1117.92 557.317C1121.95 554.078 1124.81 549.467 1126.01 544.255C1127.22 539.044 1126.7 533.551 1124.55 528.696C1122.4 523.841 1118.74 519.92 1114.19 517.591C1109.64 515.262 1104.48 514.666 1099.56 515.904C1094.65 517.141 1090.28 520.136 1087.2 524.387L1097.01 540.082L1083.61 531.752C1082.57 535.298 1082.34 539.058 1082.96 542.715V542.715Z" fill="#57B894"/>
<path d="M1083.86 539.613C1084.74 544.899 1087.29 549.704 1091.11 553.224C1094.92 556.743 1099.76 558.763 1104.8 558.943C1109.85 559.124 1114.8 557.455 1118.83 554.216C1122.86 550.977 1125.71 546.365 1126.92 541.154C1128.13 535.943 1127.61 530.449 1125.46 525.594C1123.31 520.74 1119.65 516.819 1115.1 514.49C1110.55 512.161 1105.38 511.565 1100.47 512.802C1095.55 514.04 1091.19 517.035 1088.11 521.286L1097.92 536.981L1084.51 528.65C1083.47 532.197 1083.25 535.956 1083.86 539.613V539.613Z" stroke="#3F3D56" stroke-miterlimit="10"/>
<path d="M9.53231 506.821C11.6386 507.634 13.8939 507.917 16.1206 507.646C18.3472 507.376 20.4843 506.56 22.3633 505.262C24.2424 503.964 25.8121 502.22 26.9486 500.167C28.0852 498.115 28.7576 495.81 28.9129 493.434C29.0681 491.058 28.702 488.676 27.8432 486.477C26.9845 484.277 25.6567 482.319 23.9645 480.758C22.2723 479.196 20.2619 478.074 18.0919 477.479C15.9218 476.884 13.6513 476.833 11.4594 477.329L11.8216 485.244L8.29772 478.461C4.8392 480.188 2.16735 483.303 0.869322 487.122C0.408336 488.46 0.128091 489.86 0.0369472 491.282C-0.185484 494.617 0.621141 497.938 2.33458 500.742C4.04803 503.546 6.5749 505.68 9.53231 506.821V506.821Z" fill="#57B894"/>
<path d="M26.9688 598.618C25.7249 591.887 31.1151 585.92 36.4395 582.041C41.7638 578.162 47.985 574.351 49.8017 567.769C52.4125 558.308 44.6355 549.645 38.5825 542.173C34.0917 536.629 30.2351 530.538 27.0935 524.029C25.7277 521.472 24.7974 518.679 24.3455 515.779C23.8683 511.586 25.1361 507.413 26.4133 503.413C30.6682 490.088 35.2175 476.875 40.061 463.773" stroke="#3F3D56" stroke-miterlimit="10"/>
<path d="M10.1283 504.783C12.2345 505.597 14.4899 505.879 16.7165 505.609C18.9431 505.338 21.0802 504.522 22.9593 503.224C24.8383 501.926 26.408 500.182 27.5446 498.129C28.6811 496.077 29.3535 493.772 29.5088 491.396C29.664 489.02 29.2979 486.639 28.4392 484.439C27.5804 482.239 26.2527 480.282 24.5605 478.72C22.8682 477.159 20.8579 476.036 18.6878 475.441C16.5177 474.846 14.2473 474.795 12.0554 475.292L12.4176 483.206L8.89367 476.423C5.43515 478.15 2.7633 481.265 1.46527 485.085C1.00429 486.422 0.724048 487.823 0.632899 489.244C0.410453 492.579 1.21707 495.9 2.93052 498.704C4.64397 501.508 7.17085 503.642 10.1283 504.783V504.783Z" stroke="#3F3D56" stroke-miterlimit="10"/>
<path d="M25.2 461.04C26.0266 458.617 27.4139 456.453 29.2341 454.749C31.0544 453.045 33.2489 451.855 35.6156 451.289L36.8071 458.813L39.0161 450.911C42.0832 450.959 45.0564 452.042 47.5066 454.003C49.9568 455.964 51.7571 458.702 52.6476 461.821C53.5381 464.94 53.4728 468.279 52.461 471.356C51.4492 474.433 49.5433 477.089 47.0185 478.94C44.4937 480.791 41.4807 481.742 38.4144 481.655C35.3481 481.567 32.3872 480.447 29.9592 478.455C27.5312 476.463 25.7618 473.703 24.9063 470.573C24.0509 467.442 24.1537 464.104 25.2 461.04V461.04Z" fill="#57B894"/>
<path d="M25.9947 458.323C26.8213 455.9 28.2086 453.736 30.0288 452.032C31.849 450.328 34.0436 449.138 36.4103 448.572L37.6018 456.096L39.8108 448.194C42.8779 448.242 45.8511 449.325 48.3013 451.286C50.7515 453.247 52.5518 455.985 53.4423 459.104C54.3328 462.223 54.2675 465.562 53.2557 468.639C52.2439 471.716 50.338 474.372 47.8132 476.223C45.2884 478.074 42.2753 479.025 39.209 478.938C36.1427 478.85 33.1818 477.73 30.7538 475.738C28.3259 473.746 26.5564 470.986 25.701 467.855C24.8456 464.725 24.9484 461.387 25.9947 458.323V458.323Z" stroke="#3F3D56" stroke-miterlimit="10"/>
<path d="M36.0422 542.326C39.3826 543.614 43.052 543.55 46.351 542.147C49.6501 540.745 52.3481 538.101 53.9309 534.721C55.5136 531.34 55.8704 527.459 54.9332 523.817C53.996 520.175 51.8303 517.026 48.849 514.972L47.1517 521.045L45.9481 513.432C45.9362 513.426 45.9239 513.421 45.9112 513.417C44.1245 512.726 42.2273 512.417 40.3279 512.506C38.4286 512.595 36.5644 513.081 34.8419 513.936C33.1194 514.791 31.5723 515.998 30.2892 517.489C29.006 518.98 28.0118 520.725 27.3635 522.624C26.7151 524.523 26.4253 526.539 26.5107 528.557C26.596 530.576 27.0548 532.556 27.8608 534.386C28.6667 536.216 29.8041 537.859 31.208 539.221C32.6118 540.583 34.2545 541.639 36.0422 542.326V542.326Z" fill="#57B894"/>
<path d="M36.7306 539.574C40.071 540.862 43.7404 540.798 47.0395 539.395C50.3385 537.993 53.0366 535.349 54.6193 531.969C56.202 528.588 56.5588 524.707 55.6216 521.065C54.6844 517.422 52.5188 514.274 49.5375 512.22L47.8401 518.293L46.6365 510.679C46.6246 510.674 46.6123 510.669 46.5997 510.665C44.8133 509.976 42.9169 509.668 41.0185 509.758C39.1202 509.849 37.2571 510.335 35.5358 511.191C32.0594 512.918 29.3712 516.042 28.0624 519.876C26.7537 523.709 26.9318 527.938 28.5574 531.633C30.183 535.327 33.123 538.183 36.7306 539.574V539.574Z" stroke="#3F3D56" stroke-miterlimit="10"/>
<path d="M20.9771 567.863C21.5514 571.336 23.232 574.493 25.737 576.805C28.2419 579.118 31.419 580.444 34.7352 580.563C38.0515 580.682 41.3053 579.585 43.951 577.457C46.5967 575.329 48.4734 572.299 49.2663 568.875C50.0591 565.451 49.7201 561.842 48.3058 558.652C46.8916 555.463 44.4883 552.887 41.4989 551.356C38.5096 549.826 35.116 549.435 31.8872 550.248C28.6585 551.061 25.791 553.029 23.7656 555.822L30.2129 566.133L21.4035 560.66C20.7204 562.99 20.5742 565.46 20.9771 567.863V567.863Z" fill="#57B894"/>
<path d="M21.573 565.825C22.1474 569.298 23.8279 572.455 26.3329 574.767C28.8379 577.08 32.0149 578.406 35.3312 578.525C38.6475 578.644 41.9013 577.547 44.547 575.419C47.1927 573.291 49.0693 570.261 49.8622 566.837C50.6551 563.414 50.316 559.804 48.9018 556.614C47.4876 553.425 45.0843 550.849 42.0949 549.318C39.1055 547.788 35.7119 547.397 32.4832 548.21C29.2544 549.023 26.3869 550.991 24.3616 553.784L30.8089 564.096L21.9994 558.622C21.3164 560.952 21.1701 563.423 21.573 565.825V565.825Z" stroke="#3F3D56" stroke-miterlimit="10"/>
<path d="M508.972 361.603C518.908 361.603 526.963 350.527 526.963 336.863C526.963 323.199 518.908 312.123 508.972 312.123C499.036 312.123 490.981 323.199 490.981 336.863C490.981 350.527 499.036 361.603 508.972 361.603Z" fill="#2F2E41"/>
<path d="M606.862 362.166C616.798 362.166 624.853 351.089 624.853 337.425C624.853 323.762 616.798 312.685 606.862 312.685C596.927 312.685 588.872 323.762 588.872 337.425C588.872 351.089 596.927 362.166 606.862 362.166Z" fill="#2F2E41"/>
<path d="M593.105 410.521C593.105 421.699 578.416 430.763 560.298 430.763C542.181 430.763 527.492 421.699 527.492 410.521C527.492 400.839 538.509 392.742 553.229 390.763C555.573 390.434 557.934 390.273 560.298 390.279C564.259 390.266 568.21 390.718 572.077 391.629C584.374 394.541 593.105 401.907 593.105 410.521Z" fill="#2F2E41"/>
<path d="M513.205 355.98C523.141 355.98 531.196 344.904 531.196 331.24C531.196 317.577 523.141 306.5 513.205 306.5C503.269 306.5 495.215 317.577 495.215 331.24C495.215 344.904 503.269 355.98 513.205 355.98Z" stroke="#3F3D56" stroke-miterlimit="10"/>
<path d="M611.095 356.543C621.031 356.543 629.086 345.466 629.086 331.802C629.086 318.139 621.031 307.062 611.095 307.062C601.159 307.062 593.105 318.139 593.105 331.802C593.105 345.466 601.159 356.543 611.095 356.543Z" stroke="#3F3D56" stroke-miterlimit="10"/>
<path d="M564.532 425.141C582.65 425.141 597.338 416.078 597.338 404.898C597.338 393.719 582.65 384.656 564.532 384.656C546.413 384.656 531.725 393.719 531.725 404.898C531.725 416.078 546.413 425.141 564.532 425.141Z" stroke="#3F3D56" stroke-miterlimit="10"/>
<path d="M572.468 393.316C572.477 394.73 571.977 396.094 571.072 397.13C570.644 397.626 570.124 398.023 569.545 398.296C568.966 398.568 568.34 398.711 567.706 398.714H557.124C555.82 398.665 554.587 398.07 553.694 397.059C552.802 396.047 552.323 394.702 552.361 393.316C552.356 392.219 552.658 391.146 553.229 390.233C555.571 389.883 557.933 389.71 560.298 389.717C564.264 389.703 568.218 390.186 572.077 391.157C572.338 391.842 572.471 392.576 572.468 393.316V393.316Z" fill="white"/>
<path d="M513.205 330.116C516.127 330.116 518.496 327.598 518.496 324.493C518.496 321.388 516.127 318.87 513.205 318.87C510.283 318.87 507.914 321.388 507.914 324.493C507.914 327.598 510.283 330.116 513.205 330.116Z" fill="white"/>
<path d="M611.625 330.116C614.547 330.116 616.916 327.598 616.916 324.493C616.916 321.388 614.547 318.87 611.625 318.87C608.702 318.87 606.333 321.388 606.333 324.493C606.333 327.598 608.702 330.116 611.625 330.116Z" fill="white"/>
<path opacity="0.3" d="M616.916 382.97C619.838 382.97 622.207 380.452 622.207 377.347C622.207 374.242 619.838 371.724 616.916 371.724C613.994 371.724 611.625 374.242 611.625 377.347C611.625 380.452 613.994 382.97 616.916 382.97Z" fill="#6C63FF"/>
<path opacity="0.3" d="M487.807 382.97C490.729 382.97 493.098 380.452 493.098 377.347C493.098 374.242 490.729 371.724 487.807 371.724C484.884 371.724 482.515 374.242 482.515 377.347C482.515 380.452 484.884 382.97 487.807 382.97Z" fill="#6C63FF"/>
<path d="M502.051 100.63L399.995 123.98C396.749 124.726 393.972 126.566 392.274 129.096C390.576 131.626 390.097 134.64 390.94 137.474C391.784 140.308 393.882 142.731 396.774 144.212C399.665 145.692 403.114 146.108 406.362 145.368L495.672 124.929L497.543 124.501C498.277 116.187 501.215 108.132 506.124 100.971C505.557 100.727 504.947 100.568 504.32 100.501C503.561 100.413 502.791 100.457 502.051 100.63Z" fill="#6C63FF"/>
<path d="M405.119 151.088C403.787 151.043 402.506 150.628 401.457 149.902C400.407 149.175 399.643 148.173 399.272 147.038L393.724 130.031C393.492 129.32 393.42 128.576 393.513 127.84C393.605 127.104 393.86 126.392 394.262 125.742C394.665 125.093 395.207 124.52 395.858 124.056C396.509 123.592 397.256 123.246 398.057 123.038L480.761 101.544C481.562 101.336 482.4 101.27 483.229 101.349C484.057 101.429 484.859 101.652 485.589 102.007C486.319 102.362 486.963 102.842 487.483 103.418C488.004 103.995 488.391 104.657 488.622 105.367L494.17 122.374C494.632 123.773 494.463 125.279 493.697 126.572C492.931 127.866 491.629 128.845 490.066 129.303C489.99 129.326 489.913 129.348 489.835 129.367L407.133 150.861C406.479 151.032 405.799 151.108 405.119 151.088Z" fill="#2F2E41"/>
<path d="M561.326 71.9992C544.779 71.4905 528.638 76.6914 516.319 86.501C504 96.3106 496.47 109.959 495.323 124.558C495.28 125.128 495.246 125.706 495.221 126.285C494.74 137.413 498.004 148.407 504.601 157.878C511.198 167.348 520.83 174.869 532.281 179.489C543.732 184.109 556.487 185.621 568.932 183.834C581.377 182.047 592.954 177.041 602.199 169.449C611.444 161.857 617.942 152.02 620.87 141.182C623.799 130.344 623.027 118.992 618.652 108.561C614.277 98.1301 606.496 89.089 596.292 82.5811C586.088 76.0731 573.92 72.3906 561.326 71.9992V71.9992ZM556.532 182.921C540.134 182.397 524.66 176.145 513.506 165.537C502.353 154.93 496.431 140.833 497.04 126.342C497.072 125.594 497.123 124.855 497.191 124.125C498.146 113.434 502.636 103.217 510.103 94.7448C517.57 86.273 527.684 79.9198 539.188 76.4752C550.691 73.0307 563.077 72.6467 574.804 75.3712C586.532 78.0956 597.084 83.8082 605.149 91.7987C613.213 99.7891 618.434 109.705 620.163 120.313C621.891 130.921 620.051 141.753 614.871 151.463C609.69 161.173 601.398 169.332 591.026 174.925C580.654 180.518 568.659 183.299 556.532 182.921V182.921Z" fill="#3F3D56"/>
<path d="M612.756 130.316C612.211 142.935 606.058 154.862 595.652 163.474C585.246 172.085 571.439 176.676 557.267 176.235C543.096 175.795 529.722 170.36 520.087 161.125C510.452 151.891 505.346 139.614 505.891 126.995C505.956 125.487 506.102 124.005 506.319 122.542C508.133 110.404 515.126 99.3369 525.845 91.6395C536.565 83.9422 550.187 80.2058 563.885 81.2062C577.582 82.2066 590.301 87.867 599.402 97.012C608.502 106.157 613.285 118.084 612.756 130.316V130.316Z" fill="#E6E6E6"/>
<path d="M574.99 132.283C573.769 130.738 572.128 129.494 570.22 128.666C567.865 127.694 565.423 126.895 562.92 126.276L563.475 113.428C567.336 114.07 570.915 115.66 573.805 118.019L576.978 112.55C575.349 111.161 573.459 110.037 571.393 109.228C569.104 108.318 566.687 107.686 564.206 107.347L564.488 100.835L557.697 100.624L557.413 107.2C554.779 107.38 552.217 108.057 549.896 109.185C547.8 110.2 546.01 111.651 544.678 113.413C543.406 115.133 542.699 117.134 542.637 119.189C542.424 121.412 543.054 123.631 544.427 125.493C545.695 127.107 547.405 128.407 549.397 129.268C551.79 130.268 554.273 131.087 556.821 131.718L556.289 144.03C551.72 143.58 547.42 141.894 543.969 139.201L540.797 144.678C542.725 146.204 544.941 147.417 547.343 148.262C549.975 149.194 552.74 149.797 555.561 150.055L555.282 156.511L562.072 156.722L562.357 150.146C566.144 149.897 569.744 148.564 572.617 146.348C573.884 145.344 574.903 144.118 575.61 142.747C576.318 141.376 576.698 139.891 576.726 138.385C576.932 136.233 576.321 134.084 574.99 132.283V132.283ZM557.123 124.734C555.488 124.236 553.982 123.454 552.692 122.433C552.182 121.999 551.787 121.47 551.535 120.883C551.284 120.296 551.181 119.667 551.236 119.04C551.248 117.613 551.897 116.248 553.039 115.243C554.302 114.19 555.903 113.514 557.617 113.31L557.123 124.734ZM566.506 142.072C565.314 143.083 563.79 143.729 562.157 143.916L562.615 133.324C564.15 133.742 565.572 134.432 566.797 135.352C567.26 135.731 567.621 136.198 567.852 136.718C568.084 137.238 568.181 137.799 568.135 138.358C568.138 139.733 567.556 141.06 566.506 142.072V142.072Z" fill="#6C63FF"/>
<path d="M391.229 233C389.762 232.997 388.336 232.491 387.173 231.559C386.01 230.627 385.175 229.321 384.798 227.845L381.219 213.741C380.771 211.968 381.017 210.083 381.902 208.498C382.787 206.914 384.24 205.76 385.942 205.289L498.851 174.225C500.555 173.762 502.365 174.02 503.886 174.944C505.408 175.867 506.516 177.38 506.968 179.152L510 191.101L509.432 191.147C480.474 193.491 452.768 204.423 429.59 222.648L429.425 222.731L392.915 232.772C392.365 232.923 391.798 233 391.229 233V233Z" fill="#2F2E41"/>
<path d="M379.262 106.421C404.837 107.216 426.359 89.6018 427.333 67.0781C428.306 44.5545 408.362 25.6511 382.787 24.8561C357.212 24.0612 335.69 41.6758 334.716 64.1994C333.743 86.723 353.687 105.626 379.262 106.421Z" fill="#6C63FF"/>
<path d="M404.408 65.2307C405.909 64.8161 407.294 64.1208 408.469 63.1917C409.249 62.5275 409.856 61.7202 410.249 60.8263C410.642 59.9325 410.811 58.9738 410.744 58.0173C410.71 57.336 410.5 56.6714 410.129 56.0754C409.758 55.4795 409.237 54.9683 408.607 54.5818C406.97 53.6126 404.753 53.5784 402.476 54.4311L402.913 38.338L401.095 38.3045L400.582 57.2237L401.999 56.46C403.643 55.5759 405.977 54.9703 407.595 55.9288C407.995 56.1816 408.323 56.5132 408.555 56.8978C408.787 57.2824 408.915 57.7096 408.93 58.1463C408.976 58.8587 408.849 59.5721 408.557 60.2378C408.265 60.9036 407.815 61.5061 407.239 62.0044C405.194 63.6812 402.254 64.173 398.904 64.6022L399.157 66.2025C400.936 66.0186 402.694 65.6933 404.408 65.2307V65.2307Z" fill="#2F2E41"/>
<path d="M404.094 244.074C402.426 244.019 400.817 243.517 399.483 242.634C398.149 241.751 397.152 240.529 396.625 239.131L367.908 162.476C364.4 153.075 365.261 142.818 370.303 133.955C375.346 125.091 384.157 118.346 394.804 115.198L421.184 107.429C422.204 107.126 423.281 107.005 424.353 107.071C425.426 107.137 426.472 107.39 427.432 107.815C428.39 108.23 429.244 108.81 429.945 109.52C430.645 110.231 431.178 111.058 431.512 111.953L486.494 212.608C486.84 213.511 486.98 214.466 486.907 215.418C486.833 216.37 486.547 217.301 486.065 218.156C485.583 219.011 484.915 219.775 484.098 220.402C483.282 221.029 482.333 221.508 481.308 221.81L406.975 243.704C406.047 243.978 405.071 244.104 404.094 244.074Z" fill="#2F2E41"/>
<path d="M412.983 110.247L468.778 181.047L431.956 111.562C431.662 110.755 431.19 110.008 430.566 109.362C429.942 108.717 429.179 108.186 428.321 107.799C427.462 107.413 426.525 107.179 425.563 107.111C424.6 107.043 423.631 107.142 422.712 107.402L412.983 110.247Z" fill="#E6E6E6"/>
<path d="M503.314 165.473L398.73 156.309C397.082 156.165 395.482 155.738 394.024 155.053C392.566 154.368 391.277 153.438 390.23 152.316C389.184 151.195 388.401 149.904 387.926 148.517C387.452 147.13 387.294 145.674 387.463 144.232C387.632 142.79 388.124 141.391 388.911 140.115C389.698 138.838 390.764 137.709 392.049 136.792C393.334 135.875 394.813 135.187 396.4 134.769C397.988 134.351 399.654 134.21 401.302 134.354L505.886 143.517C506.658 143.585 507.407 143.785 508.09 144.105C508.773 144.426 509.377 144.862 509.867 145.387C510.357 145.912 510.723 146.517 510.946 147.166C511.168 147.816 511.242 148.498 511.163 149.173L509.795 160.847C509.635 162.21 508.863 163.464 507.647 164.331C506.432 165.199 504.873 165.609 503.314 165.473Z" fill="#6C63FF"/>
<path d="M475.73 168.407C475.591 168.403 475.452 168.395 475.313 168.383L475.312 168.383L389.134 160.809C388.299 160.736 387.49 160.519 386.752 160.17C386.014 159.822 385.361 159.35 384.832 158.779C384.303 158.209 383.906 157.553 383.666 156.847C383.426 156.142 383.347 155.402 383.432 154.669L385.78 134.564C385.866 133.831 386.115 133.12 386.514 132.471C386.912 131.821 387.452 131.247 388.102 130.781C388.753 130.314 389.501 129.965 390.305 129.752C391.109 129.539 391.952 129.467 392.786 129.541L478.965 137.114C480.649 137.264 482.195 137.994 483.264 139.146C484.333 140.297 484.837 141.774 484.666 143.254L482.318 163.359C482.19 164.436 481.711 165.459 480.938 166.304C480.165 167.149 479.132 167.782 477.962 168.125C477.243 168.335 476.487 168.431 475.73 168.407V168.407Z" fill="#2F2E41"/>
<path d="M381.746 38.4508C388.044 33.9965 396.237 38.4109 403.26 37.901C409.979 37.4132 415.491 32.2635 417.084 26.6601C418.943 20.1228 415.368 13.4043 409.856 9.12104C403.819 4.42982 395.61 2.8818 387.742 3.47045C378.725 4.1451 370.356 7.59539 362.796 11.8484C355.505 15.8195 348.755 20.5229 342.679 25.8648C337.232 30.814 332.541 36.7693 330.83 43.6038C329.275 49.8149 329.957 56.7725 333.9 62.1977C335.996 64.9806 338.867 67.2362 342.238 68.7468C345.749 70.4139 349.518 71.6449 352.908 73.512C358.035 76.3349 362.891 82.0088 361.001 87.6974C360.594 88.9404 359.85 90.0767 358.832 91.0065C357.609 92.1231 355.56 90.5337 356.786 89.4142C358.939 87.4479 358.974 84.7374 357.978 82.279C356.788 79.5066 354.568 77.1775 351.682 75.6733C348.133 73.7233 344.176 72.4647 340.529 70.6756C337.035 69.0362 334.043 66.6724 331.808 63.7854C327.593 58.1689 326.57 50.9982 327.864 44.4344C329.265 37.3313 333.686 30.9745 339.112 25.701C345.016 19.962 352.172 15.1711 359.455 10.8937C367.269 6.30399 375.849 2.48505 385.211 1.29837C393.327 0.269693 402.03 1.32883 408.911 5.43806C415.333 9.27377 420.109 15.677 420.309 22.6723C420.352 25.8537 419.437 28.9904 417.657 31.7596C415.878 34.5289 413.299 36.8306 410.186 38.428C406.995 39.9842 403.336 40.6156 399.726 40.233C395.862 39.8931 392.031 38.7224 388.121 38.8928C386.354 38.9328 384.647 39.482 383.26 40.457C381.884 41.4302 380.382 39.416 381.746 38.4508L381.746 38.4508Z" fill="#2F2E41"/>
</svg>
