<svg width="600" height="600" viewBox="0 0 600 600" fill="none" xmlns="http://www.w3.org/2000/svg">
<g clip-path="url(#clip0)">
<circle cx="300" cy="300" r="180" fill="#3E89ED"/>
<circle cx="300" cy="300" r="106" stroke="white" stroke-width="4"/>
<circle cx="225" cy="228" r="36" fill="#3E89ED"/>
<rect x="211" y="220" width="28" height="28" rx="14" fill="#9EC8FF"/>
<path fill-rule="evenodd" clip-rule="evenodd" d="M224.949 206.5H225H225.051C225.939 206.5 226.682 206.5 227.291 206.542C227.925 206.585 228.524 206.678 229.105 206.919C230.452 207.477 231.523 208.548 232.081 209.895C232.322 210.476 232.415 211.075 232.458 211.709C232.5 212.318 232.5 213.061 232.5 213.949V214V215C232.5 215.828 231.828 216.5 231 216.5C230.172 216.5 229.5 215.828 229.5 215V214C229.5 213.048 229.499 212.408 229.465 211.913C229.433 211.432 229.374 211.198 229.31 211.043C229.056 210.431 228.569 209.944 227.957 209.69C227.802 209.626 227.568 209.567 227.087 209.535C226.592 209.501 225.952 209.5 225 209.5C224.048 209.5 223.408 209.501 222.913 209.535C222.432 209.567 222.198 209.626 222.043 209.69C221.431 209.944 220.944 210.431 220.69 211.043C220.626 211.198 220.567 211.432 220.535 211.913C220.501 212.408 220.5 213.048 220.5 214V219.163C221.924 218.732 223.435 218.5 225 218.5C233.56 218.5 240.5 225.44 240.5 234C240.5 242.56 233.56 249.5 225 249.5C216.44 249.5 209.5 242.56 209.5 234C209.5 228.16 212.73 223.075 217.5 220.432V214L217.5 213.949C217.5 213.061 217.5 212.318 217.542 211.709C217.585 211.075 217.678 210.476 217.919 209.895C218.477 208.548 219.548 207.477 220.895 206.919C221.476 206.678 222.075 206.585 222.709 206.542C223.318 206.5 224.061 206.5 224.949 206.5ZM225 221.5C218.096 221.5 212.5 227.096 212.5 234C212.5 240.904 218.096 246.5 225 246.5C231.904 246.5 237.5 240.904 237.5 234C237.5 227.096 231.904 221.5 225 221.5ZM226.5 232C226.5 231.172 225.828 230.5 225 230.5C224.172 230.5 223.5 231.172 223.5 232V236C223.5 236.828 224.172 237.5 225 237.5C225.828 237.5 226.5 236.828 226.5 236V232Z" fill="white"/>
</g>
<defs>
<clipPath id="clip0">
<rect width="600" height="600" fill="white"/>
</clipPath>
</defs>
</svg>
