<svg width="24" height="24" viewBox="0 0 24 24" fill="#5990D9" xmlns="http://www.w3.org/2000/svg">
<g clip-path="url(#clip0_3767_89295)">
<path d="M13.4609 22.957H9.93784C9.34937 22.957 8.87067 22.4783 8.87067 21.8899V13.9433H6.81522C6.22675 13.9433 5.74805 13.4645 5.74805 12.8762V9.47105C5.74805 8.88258 6.22675 8.40389 6.81522 8.40389H8.87067V6.69873C8.87067 5.00801 9.40157 3.56957 10.4058 2.53915C11.4146 1.50404 12.8243 0.957031 14.4826 0.957031L17.1695 0.961395C17.757 0.962402 18.2348 1.4411 18.2348 2.02856V5.19012C18.2348 5.7786 17.7563 6.25729 17.168 6.25729L15.3589 6.25797C14.8072 6.25797 14.6667 6.36858 14.6367 6.40248C14.5872 6.45871 14.5283 6.61766 14.5283 7.05658V8.40372H17.032C17.2205 8.40372 17.4032 8.45021 17.5601 8.53783C17.8986 8.72699 18.1091 9.08467 18.1091 9.47122L18.1078 12.8763C18.1078 13.4645 17.6291 13.9432 17.0406 13.9432H14.5283V21.8899C14.5283 22.4783 14.0494 22.957 13.4609 22.957V22.957ZM10.1604 21.6673H13.2384V13.3659C13.2384 12.973 13.5581 12.6534 13.9509 12.6534H16.818L16.8192 9.69362H13.9507C13.558 9.69362 13.2384 9.37404 13.2384 8.98111V7.05658C13.2384 6.5527 13.2896 5.97968 13.6699 5.54898C14.1295 5.02832 14.8537 4.96823 15.3586 4.96823L16.9451 4.96756V2.25079L14.4816 2.24677C11.8165 2.24677 10.1604 3.95276 10.1604 6.69873V8.98111C10.1604 9.37387 9.84082 9.69362 9.44806 9.69362H7.03778V12.6534H9.44806C9.84082 12.6534 10.1604 12.973 10.1604 13.3659V21.6673ZM17.167 2.25113H17.1672H17.167Z" fill="#1F3E66"/>
</g>
<defs>
<clipPath id="clip0_3767_89295" fill="#5990D9" fill-opacity="0.91">
<rect width="21.957" height="22" fill="white" transform="translate(1 1)"/>
</clipPath>
</defs>
</svg>