<svg width="22" height="23" viewBox="0 0 22 23" fill="none" xmlns="http://www.w3.org/2000/svg">
<path d="M6.04174 3.02087C6.04174 3.61834 5.86457 4.2024 5.53263 4.69918C5.2007 5.19596 4.7289 5.58315 4.17691 5.81179C3.62492 6.04043 3.01752 6.10026 2.43153 5.9837C1.84554 5.86714 1.30727 5.57942 0.914794 5.15695C0.462318 4.73447 0.174608 4.1962 0.0580466 3.61021C-0.0585143 3.02422 0.00130861 2.41683 0.229951 1.86483C0.458594 1.31284 0.845787 0.841046 1.34257 0.509108C1.83935 0.177171 2.4234 0 3.02087 0C3.82206 0 4.59043 0.318269 5.15695 0.914792C5.72347 1.45132 6.04174 2.21969 6.04174 3.02087Z" fill="#5990D9" fill-opacity="0.91"/>
<path d="M5.357 8.05582V21.402C5.35754 21.5005 5.3386 21.5981 5.30129 21.6892C5.26398 21.7803 5.20903 21.8631 5.1396 21.933C5.07016 22.0028 4.98762 22.0582 4.8967 22.096C4.80579 22.1338 4.7083 22.1532 4.60984 22.1532H1.42585C1.32739 22.1535 1.22985 22.1343 1.13883 22.0967C1.04782 22.0592 0.965125 22.004 0.895505 21.9344C0.825885 21.8648 0.770711 21.7821 0.733156 21.691C0.6956 21.6 0.676403 21.5025 0.676669 21.404V8.05582C0.676669 7.85712 0.7556 7.66657 0.896098 7.52607C1.0366 7.38557 1.22715 7.30664 1.42585 7.30664H4.60984C4.80819 7.30717 4.99823 7.38634 5.13829 7.52678C5.27835 7.66722 5.35701 7.85747 5.357 8.05582V8.05582Z" fill="#5990D9" fill-opacity="0.91"/>
<path d="M22 15.0037V21.4643C22.0003 21.5548 21.9826 21.6445 21.9481 21.7282C21.9136 21.8119 21.8629 21.8879 21.7989 21.9519C21.7348 22.0159 21.6588 22.0667 21.5751 22.1012C21.4914 22.1357 21.4018 22.1533 21.3112 22.1531H17.8876C17.7971 22.1533 17.7074 22.1357 17.6237 22.1012C17.54 22.0667 17.464 22.0159 17.4 21.9519C17.336 21.8879 17.2852 21.8119 17.2507 21.7282C17.2162 21.6445 17.1986 21.5548 17.1988 21.4643V15.203C17.1988 14.2686 17.4727 11.1108 14.7559 11.1108C12.6514 11.1108 12.2224 13.2717 12.1379 14.2424V21.4643C12.1379 21.6452 12.0667 21.8189 11.9397 21.9478C11.8127 22.0767 11.6401 22.1504 11.4592 22.1531H8.15232C8.06197 22.1531 7.9725 22.1352 7.88905 22.1006C7.8056 22.066 7.72981 22.0152 7.66601 21.9512C7.60221 21.8872 7.55167 21.8113 7.51727 21.7277C7.48288 21.6442 7.46531 21.5547 7.46558 21.4643V7.99726C7.46531 7.90691 7.48288 7.81739 7.51727 7.73384C7.55167 7.65029 7.60221 7.57434 7.66601 7.51036C7.72981 7.44638 7.8056 7.39561 7.88905 7.36097C7.9725 7.32633 8.06197 7.30851 8.15232 7.30851H11.4592C11.6418 7.30851 11.817 7.38107 11.9462 7.51024C12.0754 7.63941 12.1479 7.81459 12.1479 7.99726V9.16131C12.9293 7.98921 14.0873 7.08496 16.5584 7.08496C22.0322 7.08496 22 12.1963 22 15.0037V15.0037Z" fill="#5990D9" fill-opacity="0.91"/>
</svg>
