<svg width="24" height="24" viewBox="0 0 24 24" fill="none" xmlns="http://www.w3.org/2000/svg">
<path d="M20.1539 18.2814H3.84609C3.74063 18.2814 3.65625 18.3657 3.65625 18.4689V19.8751C3.65625 19.9782 3.74063 20.0626 3.84609 20.0626H20.1539C20.2594 20.0626 20.3438 19.9782 20.3438 19.8751V18.4689C20.3438 18.3657 20.2594 18.2814 20.1539 18.2814ZM11.8523 15.6798C11.8699 15.7022 11.8923 15.7203 11.9179 15.7328C11.9435 15.7453 11.9715 15.7517 12 15.7517C12.0285 15.7517 12.0565 15.7453 12.0821 15.7328C12.1077 15.7203 12.1301 15.7022 12.1477 15.6798L14.7727 12.3587C14.8687 12.2368 14.782 12.0564 14.625 12.0564H12.8883V4.12512C12.8883 4.022 12.8039 3.93762 12.7008 3.93762H11.2945C11.1914 3.93762 11.107 4.022 11.107 4.12512V12.054H9.375C9.21797 12.054 9.13125 12.2345 9.22734 12.3564L11.8523 15.6798Z" fill="#3F415E"/>
</svg>
