<svg width="24" height="24" viewBox="0 0 24 24" fill="none" xmlns="http://www.w3.org/2000/svg">
<path d="M20.1539 3.93762H3.84609C3.74063 3.93762 3.65625 4.022 3.65625 4.12512V5.53137C3.65625 5.6345 3.74063 5.71887 3.84609 5.71887H20.1539C20.2594 5.71887 20.3438 5.6345 20.3438 5.53137V4.12512C20.3438 4.022 20.2594 3.93762 20.1539 3.93762ZM12.1477 8.32043C12.1301 8.29802 12.1077 8.2799 12.0821 8.26744C12.0565 8.25497 12.0285 8.24849 12 8.24849C11.9715 8.24849 11.9435 8.25497 11.9179 8.26744C11.8923 8.2799 11.8699 8.29802 11.8523 8.32043L9.22734 11.6415C9.2057 11.6692 9.19228 11.7023 9.1886 11.7372C9.18492 11.7721 9.19113 11.8074 9.20654 11.8389C9.22194 11.8705 9.24591 11.897 9.2757 11.9156C9.30549 11.9341 9.3399 11.9439 9.375 11.9439H11.107V19.8751C11.107 19.9782 11.1914 20.0626 11.2945 20.0626H12.7008C12.8039 20.0626 12.8883 19.9782 12.8883 19.8751V11.9462H14.625C14.782 11.9462 14.8687 11.7657 14.7727 11.6439L12.1477 8.32043Z" fill="#3F415E"/>
</svg>
