<svg width="182" height="82" viewBox="0 0 182 82" fill="none" xmlns="http://www.w3.org/2000/svg">
<path fill-rule="evenodd" clip-rule="evenodd" d="M129.057 0.240762C128.232 0.0968241 127.378 0.0392488 126.034 0.0104611C125.008 -0.00873062 123.99 0.00086526 123.779 0.020057C123.568 0.0392488 122.944 0.125612 122.388 0.211975C121.831 0.288742 120.901 0.480659 120.325 0.634193C119.749 0.787727 118.885 1.04682 118.406 1.20995C117.926 1.38267 117.024 1.76651 116.39 2.07358C115.757 2.38064 114.788 2.92761 114.231 3.29225C113.675 3.66649 112.898 4.22305 112.504 4.53972C112.111 4.86598 111.372 5.54728 110.873 6.06546C110.364 6.59324 109.76 7.27454 109.52 7.59121C109.27 7.90787 108.848 8.51241 108.579 8.93463C108.301 9.35685 107.85 10.1725 107.562 10.7578C107.284 11.3432 106.9 12.2836 106.708 12.8689C106.516 13.4543 106.267 14.3947 106.142 14.98C105.969 15.8725 105.931 16.3522 105.931 18.0987C105.941 19.6724 105.979 20.3921 106.113 21.1214C106.209 21.6492 106.478 22.6663 106.708 23.3764C106.948 24.0865 107.361 25.1229 107.639 25.6794C107.917 26.236 108.464 27.1572 108.858 27.7426C109.251 28.3183 109.904 29.1627 110.307 29.6138C110.7 30.0648 111.458 30.8036 111.986 31.2642C112.504 31.7248 112.965 32.0703 113.003 32.0319C113.042 31.9935 113.272 31.5425 113.512 31.0243L113.944 30.0935C112.36 28.5678 111.564 27.6754 111.151 27.1188C110.738 26.5623 110.163 25.6602 109.875 25.1037C109.597 24.5471 109.242 23.7987 109.098 23.4244C108.954 23.0502 108.714 22.2729 108.57 21.6972C108.416 21.1214 108.244 20.1234 108.186 19.4901C108.119 18.828 108.09 17.9548 108.128 17.427C108.157 16.928 108.253 16.1315 108.33 15.6517C108.407 15.1815 108.627 14.2891 108.819 13.6846C109.011 13.0801 109.357 12.1876 109.577 11.7174C109.808 11.2472 110.287 10.4028 110.662 9.84624C111.026 9.28968 111.65 8.47403 112.044 8.02302C112.437 7.57202 113.166 6.86192 113.665 6.4493C114.164 6.02708 114.98 5.41294 115.479 5.08668C115.978 4.75083 116.928 4.22305 117.59 3.90639C118.252 3.58972 119.288 3.1867 119.893 3.00438C120.497 2.82205 121.428 2.58216 121.956 2.46701C122.484 2.36145 123.501 2.22711 124.211 2.16953C125.161 2.09277 125.881 2.09277 126.898 2.16953C127.666 2.22711 128.808 2.39024 129.441 2.52458C130.074 2.65892 131.024 2.90842 131.552 3.08114C132.08 3.25387 132.963 3.60892 133.519 3.86801C134.076 4.12709 134.891 4.5685 135.342 4.84679C135.793 5.12507 136.503 5.62405 136.926 5.95991C137.348 6.28617 138.058 6.9195 138.499 7.36091C138.941 7.80232 139.641 8.61797 140.054 9.17453C140.467 9.73109 141.042 10.6331 141.33 11.1897C141.618 11.7462 142.002 12.6099 142.184 13.1088C142.367 13.6078 142.606 14.4331 142.722 14.9321C142.827 15.431 142.961 16.3618 143.019 16.9952C143.105 17.8492 143.096 18.4537 143.019 19.3462C142.952 20.0371 142.77 21.0734 142.587 21.7931C142.414 22.4744 142.088 23.4724 141.848 24.0002C141.618 24.5279 141.234 25.286 141.004 25.6794C140.774 26.0729 140.275 26.8118 139.891 27.3107C139.517 27.8097 138.768 28.6446 138.231 29.1532L137.261 30.0935C137.473 30.6501 137.665 31.1011 137.828 31.4562C138.077 32.0127 138.154 32.0991 138.288 32.0223C138.384 31.9743 138.874 31.5713 139.373 31.1299C139.872 30.6789 140.61 29.9304 141.004 29.4602C141.407 28.99 141.925 28.3279 142.175 27.9825C142.414 27.637 142.837 26.9749 143.105 26.4951C143.374 26.0153 143.787 25.1805 144.027 24.6239C144.257 24.0673 144.602 23.031 144.785 22.3209C144.967 21.6108 145.188 20.3729 145.284 19.5861C145.447 18.2138 145.447 18.0795 145.284 16.7073C145.188 15.9204 144.977 14.7018 144.804 14.0204C144.631 13.3391 144.362 12.4755 144.219 12.1013C144.075 11.727 143.739 11.0073 143.489 10.4892C143.23 9.98058 142.856 9.30887 142.664 9.0018C142.472 8.70433 142.069 8.12858 141.772 7.73515C141.474 7.34171 140.841 6.61243 140.371 6.11344C139.9 5.62405 139.133 4.90436 138.653 4.52052C138.173 4.13669 137.425 3.58013 136.974 3.29225C136.523 3.00438 135.707 2.53418 135.15 2.2463C134.594 1.96802 133.797 1.59378 133.375 1.43065C132.953 1.25793 132.07 0.970049 131.408 0.787727C130.746 0.59581 129.69 0.355913 129.057 0.240762ZM127.57 4.5685C126.84 4.44376 126.082 4.38618 125.315 4.38618C124.681 4.39578 123.731 4.48214 123.204 4.5685C122.676 4.66446 121.831 4.84679 121.332 4.98113C120.833 5.11547 119.941 5.43213 119.365 5.69122C118.789 5.94072 117.983 6.35334 117.59 6.60283C117.197 6.84273 116.611 7.24576 116.294 7.48565C115.978 7.73515 115.373 8.26292 114.961 8.67554C114.538 9.07857 113.896 9.82705 113.521 10.326C113.147 10.825 112.638 11.6311 112.389 12.1013C112.149 12.5715 111.794 13.3967 111.612 13.9245C111.429 14.4523 111.199 15.2487 111.103 15.6997C110.969 16.3235 110.921 16.928 110.921 18.2906C110.921 19.6532 110.969 20.2578 111.103 20.8815C111.199 21.3325 111.429 22.129 111.612 22.6567C111.794 23.1845 112.101 23.9138 112.283 24.288C112.475 24.6623 112.888 25.3436 113.214 25.8234C113.531 26.2936 114.03 26.9269 114.299 27.234C114.577 27.541 114.836 27.7905 114.874 27.7905C114.922 27.7905 115.162 27.3299 115.412 26.7638L115.872 25.7274C115.085 24.6623 114.673 24.0194 114.452 23.5971C114.231 23.1845 113.924 22.484 113.771 22.033C113.617 21.582 113.406 20.8527 113.32 20.4017C113.195 19.8451 113.137 19.1734 113.137 18.2906C113.137 17.4078 113.195 16.7361 113.32 16.1795C113.406 15.7285 113.608 15.0184 113.752 14.5962C113.896 14.174 114.126 13.5886 114.279 13.3008C114.423 13.0129 114.778 12.4083 115.076 11.9573C115.373 11.5063 116.026 10.7291 116.534 10.2205C117.033 9.72149 117.811 9.06897 118.262 8.7715C118.713 8.47403 119.423 8.0614 119.845 7.8503C120.267 7.63919 121.044 7.33212 121.572 7.17858C122.1 7.01545 122.791 6.82354 123.108 6.75637C123.453 6.6796 124.365 6.63162 125.411 6.63162C126.744 6.63162 127.32 6.67 127.953 6.81394C128.404 6.9099 129.095 7.09222 129.489 7.22656C129.882 7.36091 130.554 7.62959 130.976 7.8311C131.398 8.03262 132.089 8.43564 132.512 8.71392C132.924 8.9922 133.663 9.59675 134.143 10.0478C134.613 10.5084 135.246 11.2184 135.553 11.6311C135.851 12.0533 136.283 12.7826 136.523 13.2528C136.763 13.723 137.07 14.481 137.214 14.9321C137.348 15.3831 137.53 16.1603 137.607 16.6593C137.674 17.1583 137.741 17.8972 137.741 18.2906C137.741 18.684 137.674 19.4229 137.597 19.9219C137.53 20.4209 137.367 21.131 137.252 21.5052C137.146 21.8795 136.945 22.4264 136.82 22.7239C136.695 23.031 136.388 23.6163 136.148 24.0194C135.908 24.432 135.582 24.931 135.429 25.1229L135.15 25.4875C135.832 27.0133 136.072 27.5027 136.12 27.5506C136.187 27.6178 136.312 27.5314 136.503 27.3107C136.667 27.1284 137.022 26.6774 137.3 26.3032C137.578 25.9289 137.981 25.334 138.192 24.9597C138.413 24.5855 138.749 23.9042 138.941 23.4244C139.142 22.9446 139.382 22.2825 139.488 21.937C139.584 21.5916 139.728 20.9295 139.804 20.4497C139.881 19.9699 139.948 19.0103 139.948 18.3098C139.948 17.6189 139.9 16.7265 139.843 16.3426C139.785 15.9684 139.66 15.3255 139.564 14.9321C139.459 14.5386 139.209 13.7997 139.008 13.3008C138.806 12.8018 138.451 12.0629 138.221 11.6695C138 11.276 137.569 10.6235 137.281 10.2301C136.983 9.83664 136.35 9.11695 135.87 8.64675C135.39 8.17656 134.651 7.53363 134.229 7.23616C133.817 6.93869 133.059 6.47808 132.56 6.2094C132.061 5.95031 131.322 5.60486 130.928 5.44173C130.535 5.2882 129.863 5.06749 129.441 4.96194C129.019 4.84679 128.174 4.67406 127.57 4.5685ZM128.049 9.06897C127.435 8.91544 126.908 8.84827 125.89 8.82908C125.151 8.81948 124.422 8.82907 124.259 8.85786C124.096 8.87705 123.626 8.98261 123.204 9.08816C122.781 9.19372 122.004 9.49119 121.476 9.75028C120.949 10.0094 120.171 10.4988 119.749 10.8346C119.327 11.1705 118.78 11.6791 118.54 11.9669C118.3 12.2548 117.916 12.7634 117.686 13.1088C117.456 13.4543 117.129 14.03 116.957 14.4043C116.784 14.7785 116.544 15.527 116.41 16.0836C116.275 16.6401 116.141 17.4174 116.103 17.8108C116.074 18.2043 116.093 18.9143 116.141 19.3941C116.199 19.8739 116.314 20.5361 116.4 20.8815C116.486 21.227 116.669 21.7739 116.813 22.1098C116.947 22.4456 117.11 22.6951 117.158 22.6759C117.206 22.6567 117.494 22.081 117.801 21.3997C118.3 20.2482 118.329 20.133 118.242 19.778C118.194 19.5669 118.166 18.828 118.194 18.1467C118.223 17.0719 118.271 16.7745 118.53 15.9876C118.703 15.4886 119.02 14.7785 119.24 14.4043C119.461 14.0204 119.989 13.3871 120.459 12.9169C120.91 12.4659 121.524 11.9573 121.812 11.7942C122.1 11.6215 122.618 11.3624 122.964 11.228C123.309 11.0841 123.904 10.9114 124.278 10.8442C124.662 10.7674 125.286 10.7099 125.65 10.7099C126.015 10.7099 126.639 10.7674 127.013 10.8442C127.397 10.9114 127.992 11.0841 128.337 11.228C128.683 11.3624 129.201 11.6215 129.489 11.7942C129.777 11.9573 130.391 12.4659 130.842 12.9169C131.312 13.3871 131.84 14.0204 132.061 14.4043C132.281 14.7785 132.598 15.4886 132.761 15.9876C133.02 16.7457 133.078 17.0911 133.116 18.0507C133.135 18.7128 133.106 19.4805 133.049 19.8739L132.934 20.5456C133.749 22.3305 134.018 22.8583 134.066 22.8774C134.104 22.8966 134.248 22.6759 134.373 22.3976C134.498 22.1194 134.661 21.6972 134.738 21.4573C134.815 21.2174 134.958 20.6128 135.064 20.1138C135.16 19.6148 135.246 18.8376 135.246 18.3866C135.246 17.878 135.16 17.1871 135.016 16.5634C134.891 16.0068 134.651 15.2103 134.488 14.7881C134.325 14.3659 133.941 13.627 133.634 13.1568C133.327 12.6866 132.761 11.9669 132.368 11.5735C131.965 11.1801 131.341 10.6523 130.976 10.4028C130.602 10.1533 129.978 9.80785 129.585 9.62553C129.191 9.43362 128.5 9.19372 128.049 9.06897ZM127.186 13.2912C126.706 13.1664 126.159 13.1088 125.555 13.1184C125.056 13.1184 124.384 13.1856 124.067 13.2624C123.75 13.3391 123.175 13.5502 122.791 13.7326C122.302 13.9725 121.898 14.2699 121.4 14.7593C120.92 15.2391 120.593 15.6613 120.392 16.0836C120.219 16.429 120.037 16.9472 119.979 17.2351C119.922 17.5229 119.893 18.0891 119.922 18.4825C119.951 18.876 120.018 19.3078 120.075 19.4421C120.152 19.634 120.114 19.8356 119.903 20.4017C119.749 20.7951 119.221 22.033 118.722 23.1365C118.429 23.785 117.857 25.0598 117.212 26.4993C116.759 27.5095 116.27 28.6008 115.815 29.6138C114.721 32.0703 113.79 34.1238 113.742 34.1718C113.704 34.2198 111.765 38.5187 109.433 43.7197C107.111 48.9207 105.211 53.2676 105.211 53.3828C105.211 53.5075 105.269 53.7186 105.346 53.8625C105.422 54.0161 105.586 54.2272 105.71 54.3423C105.825 54.4575 106.891 54.9469 108.061 55.4267C109.242 55.8969 110.326 56.2903 110.489 56.2903C110.652 56.2903 110.95 56.2039 111.161 56.0984C111.372 55.9928 111.631 55.7625 111.727 55.5898C111.823 55.4267 112.12 54.7837 112.389 54.1792C112.658 53.5747 113.31 52.1065 113.848 50.9166C114.057 50.4445 114.284 49.9346 114.498 49.4553C114.824 48.7266 115.117 48.0685 115.268 47.7212L115.719 46.6944L135.352 46.7424C138.211 53.1333 139.133 55.1484 139.248 55.3307C139.363 55.513 139.641 55.7721 139.872 55.9065C140.169 56.0696 140.428 56.1368 140.812 56.1368C141.253 56.1368 141.628 56.0216 143.067 55.4267C144.017 55.0332 144.919 54.6014 145.073 54.4671C145.226 54.3327 145.428 54.0641 145.524 53.8625C145.629 53.6706 145.706 53.354 145.706 53.1716C145.706 52.9509 145.341 52.0201 144.641 50.456C144.458 50.0483 144.25 49.5843 144.036 49.1084C143.566 48.061 143.07 46.9554 142.76 46.2626C142.624 45.9585 142.461 45.5976 142.289 45.2141C141.89 44.3271 141.437 43.3196 141.129 42.6162C140.957 42.2317 140.756 41.7871 140.557 41.3432C140.233 40.6239 139.91 39.9064 139.708 39.4495C139.399 38.748 138.778 37.3718 138.297 36.3064L138.221 36.139C137.863 35.3456 137.397 34.2902 137.026 33.4502C136.89 33.1422 136.767 32.863 136.667 32.6365C136.302 31.792 135.966 31.0531 135.918 31.0052C135.88 30.9572 135.544 30.1991 135.17 29.3259C134.795 28.4527 134.306 27.3299 134.066 26.8309C133.836 26.332 133.462 25.5163 133.241 25.0269C133.03 24.5471 132.847 24.1249 132.847 24.0961C132.847 24.0673 132.435 23.1557 131.926 22.0522L131.005 20.0659C131.293 18.8088 131.322 18.4058 131.283 17.7628C131.235 17.0048 131.178 16.8033 130.851 16.1315C130.564 15.5462 130.304 15.2103 129.786 14.7114C129.402 14.3563 128.846 13.9341 128.5 13.771C128.174 13.6078 127.579 13.3871 127.186 13.2912ZM53.7006 14.0684H44.5653V56.2903L61.8859 56.2327C64.0449 55.8297 65.0141 55.6282 65.4363 55.513C65.8586 55.4075 66.5686 55.1388 67.0197 54.9277C67.6914 54.6014 67.9792 54.3903 68.651 53.6994C69.1499 53.1908 69.6777 52.5287 70.0232 51.9626C70.3302 51.4636 70.7524 50.6095 70.9732 50.053C71.1843 49.4964 71.4625 48.5944 71.5873 48.0378C71.712 47.4813 71.8656 46.5313 71.9231 45.9268C71.9903 45.2838 72.0095 44.305 71.9807 43.5758C71.9423 42.8945 71.856 41.9253 71.7696 41.4359C71.6928 40.9561 71.4913 40.1308 71.3282 39.6223C71.1651 39.1041 70.8964 38.4228 70.7333 38.1061C70.5797 37.7894 70.2823 37.2905 70.0903 37.0026C69.8888 36.7147 69.409 36.1677 69.0252 35.8031C68.6318 35.4289 68.056 34.9683 67.7393 34.7763C67.4227 34.5844 66.8853 34.3061 66.5399 34.1718C66.1944 34.0279 65.9065 33.8935 65.8873 33.8743C65.8777 33.8551 66.0984 33.7112 66.3671 33.5481C66.6454 33.3945 67.1252 33.0683 67.4227 32.8284C67.7298 32.5885 68.1808 32.1471 68.4207 31.8496C68.6606 31.5425 69.0252 30.9956 69.2267 30.6213C69.4378 30.2471 69.7545 29.4986 69.9368 28.942C70.1191 28.3855 70.3494 27.5219 70.4358 27.0229C70.5413 26.4375 70.5989 25.5835 70.5989 24.6239C70.5989 23.6355 70.5413 22.8103 70.4262 22.1769C70.3398 21.6492 70.1575 20.8719 70.0232 20.4497C69.8888 20.0275 69.6393 19.3845 69.4762 19.0103C69.3035 18.6361 68.9388 17.9931 68.651 17.5709C68.3631 17.1487 67.8449 16.525 67.4899 16.1795C67.1348 15.8341 66.6166 15.4118 66.3383 15.2487C66.0505 15.076 65.5419 14.8169 65.1964 14.6826C64.851 14.5386 64.1889 14.3467 63.7091 14.2507C62.903 14.0876 62.2217 14.0684 53.7006 14.0684ZM103.004 14.0684H78.3428V56.2903H103.388V46.6944H87.5548V38.346H101.853V29.7097H87.5548V23.0886H103.004V14.0684ZM160.532 14.0684H148.393V56.2903H155.973C155.993 30.8612 156.031 24.883 156.079 25.0557C156.127 25.2188 157.403 32.2046 158.9 40.601L159.36 43.1622C160.653 50.3676 161.657 55.9674 161.683 56.0792L161.731 56.2903H168.544C168.614 55.9833 169.663 50.1604 170.993 42.7715L171.375 40.649C172.881 32.2814 174.148 25.3052 174.196 25.1517C174.244 24.9789 174.282 30.986 174.292 40.5723L174.302 56.2903H181.882V14.0684C170.156 14.0684 169.792 14.078 169.753 14.2316C169.734 14.3275 168.707 19.9987 167.479 26.8309C166.251 33.6632 165.233 39.2768 165.214 39.3056C165.195 39.3344 165.166 39.3344 165.138 39.3056C165.118 39.2768 164.072 33.5864 162.815 26.6678L160.532 14.0684ZM39.1436 14.5482L38.9997 14.2603C35.2477 14.2891 33.8275 14.3179 33.4341 14.3563C33.0406 14.3947 28.8568 14.4331 24.1453 14.4427C16.0655 14.4523 15.5857 14.4619 15.5857 14.625C15.5761 14.7113 15.6433 14.8553 15.7297 14.9321C15.8352 15.028 15.8832 15.2007 15.8544 15.4598C15.8256 15.7957 15.7681 15.882 15.365 16.1603C14.9524 16.4386 14.8852 16.4578 14.5974 16.3618C14.3767 16.2851 14.2231 16.2851 14.0504 16.3618C13.9161 16.4194 13.7433 16.5346 13.657 16.6305C13.5706 16.7265 13.4459 16.9664 13.3883 17.1679C13.3307 17.3598 13.1868 17.5805 13.062 17.6573C12.9469 17.7341 12.7454 18.0219 12.6302 18.3098C12.4191 18.7608 12.3999 18.9335 12.4287 19.9699C12.4383 20.6032 12.4287 21.3805 12.3903 21.6972C12.3615 22.0234 12.256 22.3785 12.1504 22.5128C12.0545 22.6471 11.8721 22.8007 11.7378 22.8487C11.613 22.8966 11.2964 23.0502 11.0277 23.1845C10.6726 23.3668 10.4519 23.5779 10.1833 23.981C9.93377 24.3744 9.72266 24.5663 9.46357 24.6719C9.18529 24.7774 9.04135 24.931 8.79186 25.3916C8.62873 25.7082 8.47519 26.0633 8.47519 26.188C8.4656 26.3032 8.48479 26.6582 8.52317 26.9749C8.58075 27.4163 8.56155 27.5986 8.4464 27.7426C8.36964 27.8481 8.10095 28.0016 7.84186 28.088C7.5252 28.1936 7.32369 28.3279 7.21813 28.5198C7.09339 28.7117 7.03581 29.086 6.99743 29.7577L6.94945 30.7173C5.91309 31.7632 5.54845 32.2238 5.46209 32.4253C5.35653 32.6844 5.34694 32.8476 5.41411 33.0203C5.46209 33.1546 5.51007 33.3753 5.51007 33.5289C5.51007 33.6728 5.4237 33.9895 5.31815 34.2486C5.16461 34.6036 5.13583 34.8531 5.16461 35.448C5.1934 36.0526 5.25098 36.2829 5.49087 36.7147C5.654 37.0026 5.94188 37.6743 6.1242 38.2021C6.31612 38.7298 6.46965 39.2288 6.46965 39.3056C6.46965 39.3824 6.27774 39.6414 6.03784 39.8813C5.79794 40.1212 5.57724 40.4187 5.54845 40.5531C5.51966 40.6874 5.54845 40.9081 5.60602 41.0616C5.654 41.2056 5.70198 41.4263 5.70198 41.5606C5.70198 41.695 5.59643 41.9445 5.47168 42.1172C5.35653 42.2803 5.22219 42.4914 5.1934 42.5682C5.16461 42.645 5.21259 42.8177 5.29896 42.9424C5.4237 43.1248 5.51966 43.1535 5.72117 43.1056C5.9035 43.0672 6.02824 43.096 6.10501 43.2015C6.21056 43.3167 6.20097 43.4318 6.09541 43.7485C6.02824 43.9692 5.8939 44.2571 5.79794 44.3914C5.71158 44.5257 5.60602 44.7177 5.57724 44.8232C5.53885 44.948 5.61562 45.1687 5.80754 45.447C5.98026 45.706 6.08582 46.0035 6.08582 46.1954C6.08582 46.3586 6.01865 46.6464 5.93228 46.8192C5.77875 47.1166 5.77875 47.1454 6.03784 47.702C6.27774 48.2202 6.29693 48.3161 6.20097 48.6424C6.11461 48.9207 6.11461 49.055 6.20097 49.2469C6.26814 49.3813 6.52723 49.6404 6.77672 49.8227C7.07419 50.0338 7.32369 50.3121 7.47722 50.6287C7.61156 50.8974 7.7459 51.3004 7.78429 51.5307L7.86106 51.9434C7.11258 52.4136 6.79591 52.5767 6.66157 52.6055C6.52723 52.6343 6.25854 52.7302 6.05703 52.8166C5.83633 52.9221 5.64441 53.0949 5.56764 53.2676C5.44289 53.5363 5.46209 53.5939 5.71158 54.0641C5.86511 54.3327 5.98986 54.6974 5.98986 54.8509C5.98986 55.014 5.93228 55.2923 5.86511 55.4842C5.79794 55.6762 5.61562 55.964 5.47168 56.1368C5.32774 56.2999 5.03987 56.6645 4.83835 56.9428C4.56967 57.2883 4.28179 57.5282 3.89796 57.7297C3.5621 57.9024 3.30301 58.1135 3.22625 58.2766C3.14948 58.4206 2.96716 58.958 2.80403 59.4569C2.61211 60.0711 2.42979 60.4453 2.25706 60.6084C2.11312 60.7428 1.90201 61.1266 1.77727 61.4721C1.66212 61.8175 1.49899 62.2014 1.43182 62.3357C1.35505 62.47 1.2303 62.7963 1.14394 63.0554C1.05758 63.3241 0.961618 63.9574 0.923235 64.4852C0.86566 65.3488 0.836872 65.4448 0.606571 65.6367C0.583269 65.6538 0.558709 65.6719 0.533502 65.6904C0.403008 65.7866 0.25518 65.8955 0.174756 65.9438C0.0116262 66.0397 -0.00756554 66.1645 0.00203034 66.9513C0.0116262 67.4503 0.0692015 68.0932 0.136373 68.3811C0.193948 68.669 0.289907 69.0048 0.337886 69.1296C0.385866 69.2447 0.577783 69.4079 0.760105 69.4846C1.02879 69.5998 1.99797 69.6478 5.91309 69.7245C8.57115 69.7725 13.0812 69.8205 15.9408 69.8205C18.81 69.8205 21.2185 69.8493 21.3049 69.8973C21.3912 69.9356 21.5256 70.0796 21.5928 70.2331C21.7079 70.4634 21.6983 70.5786 21.4776 71.2887C21.3433 71.7205 21.1226 72.2578 20.9978 72.4881C20.8731 72.7089 20.7867 72.9392 20.8155 72.9871C20.8443 73.0351 20.8251 73.2654 20.7771 73.4957C20.7291 73.7644 20.7483 74.1194 20.8347 74.5704C20.9115 74.9351 21.0458 75.4149 21.1418 75.626C21.2377 75.8371 21.5544 76.2881 21.8518 76.6336C22.2261 77.0654 22.466 77.4684 22.6387 77.929C22.7826 78.2937 22.9842 78.9462 23.1089 79.3684C23.2241 79.7906 23.3776 80.232 23.4352 80.3568C23.5023 80.4719 23.6943 80.6638 23.8574 80.779C24.0877 80.9229 24.3084 80.9805 24.6251 80.9709C25.0665 80.9517 25.124 80.9133 25.8054 80.232C26.1988 79.8386 26.6402 79.4356 26.7841 79.3492C26.9281 79.2532 27.3215 79.1477 27.6765 79.1189C28.0604 79.0901 28.521 78.9654 28.876 78.8022C29.1927 78.6583 29.7397 78.4472 30.0947 78.3512C30.5361 78.2265 31.0543 78.1689 31.7068 78.1689C32.5033 78.1689 32.772 78.2073 33.2901 78.4088C33.8275 78.6199 34.0098 78.6391 34.6048 78.5911C35.1805 78.5336 35.43 78.5623 35.977 78.7351C36.5911 78.927 36.6775 78.9366 36.9846 78.8118C37.1669 78.7351 37.426 78.5527 37.5603 78.4184C37.781 78.1785 37.8002 78.0826 37.8002 77.2285C37.8002 76.7199 37.7618 75.6068 37.7234 74.7624C37.6851 73.9179 37.6275 73.1023 37.6083 72.9392C37.5891 72.776 37.5411 72.0084 37.5123 71.2119C37.4835 70.425 37.3972 69.1296 37.3204 68.3331C37.2436 67.5463 37.1381 65.9054 37.0805 64.6867C37.0229 63.4776 36.9174 61.664 36.8406 60.6564C36.7638 59.6489 36.6967 58.7468 36.7063 58.6413V57.3938C36.6967 56.8181 36.7638 55.8201 36.8406 55.1868C36.9174 54.5534 37.0037 53.6035 37.0229 53.0757C37.0517 52.5479 37.1189 51.6843 37.1765 51.1565C37.2244 50.6287 37.3108 49.8994 37.3684 49.5252C37.4164 49.1606 37.5027 48.1818 37.5603 47.3661C37.6179 46.5505 37.6851 45.6389 37.7138 45.351C37.733 45.0631 37.7906 44.3434 37.8386 43.7677C37.8866 43.1919 37.9058 42.6833 37.8866 42.645C37.8674 42.597 37.9154 41.9541 37.9921 41.2056C38.0506 40.6283 38.1313 39.9341 38.1877 39.4494C38.2053 39.2976 38.2206 39.1664 38.232 39.0657C38.2896 38.6435 38.328 38.0102 38.328 37.6551C38.328 37.2905 38.4143 36.1677 38.5199 35.1602C38.6255 34.143 38.7982 32.339 38.9037 31.1491C39.0189 29.9592 39.1244 28.5102 39.1436 27.9345C39.1724 27.3587 39.2108 26.7254 39.2396 26.5431C39.2684 26.3607 39.3739 25.3916 39.4795 24.384C39.585 23.3764 39.6714 22.3209 39.6714 22.033C39.6714 21.7451 39.7578 20.7759 39.8633 19.8739C39.9689 18.9719 40.1032 17.8108 40.1608 17.283C40.2567 16.5154 40.2472 16.2563 40.1512 15.9876C40.084 15.8053 39.8633 15.4694 39.6618 15.2487C39.4507 15.0184 39.2204 14.7018 39.1436 14.5482ZM58.5465 59.0251C58.2778 58.9484 57.894 58.8812 57.7117 58.8908C57.5293 58.8908 57.1743 58.958 56.9152 59.0347C56.6177 59.1211 56.2819 59.3418 55.9268 59.6776C55.5718 60.0039 55.2743 60.3973 55.0632 60.8483C54.8617 61.2418 54.6698 61.8559 54.5834 62.3357C54.4874 62.8827 54.4491 63.42 54.4874 63.967C54.5162 64.418 54.6122 65.0417 54.6985 65.3584C54.7753 65.6751 54.9864 66.1933 55.1496 66.5003C55.3223 66.8074 55.6869 67.2776 55.9556 67.5367C56.3107 67.8533 56.6177 68.0453 56.9632 68.1412C57.2415 68.218 57.6061 68.2851 57.7596 68.2851C57.9132 68.2851 58.2778 68.218 58.5465 68.1412C58.9111 68.0357 59.2086 67.8533 59.5924 67.4983C59.9475 67.1624 60.245 66.769 60.4561 66.318C60.6576 65.9246 60.8495 65.3104 60.9359 64.8306C61.0318 64.2837 61.0702 63.7463 61.0318 63.1993C61.003 62.7483 60.9071 62.1246 60.8207 61.8079C60.7439 61.4913 60.5328 60.9731 60.3697 60.666C60.197 60.359 59.8323 59.8888 59.5541 59.6297C59.2086 59.313 58.9015 59.1211 58.5465 59.0251ZM138.653 58.9867C138.442 58.9292 138.164 58.8812 138.029 58.8812C137.895 58.8908 137.617 58.9484 137.405 59.0251C137.194 59.1019 136.897 59.2842 136.753 59.4282C136.609 59.5817 136.398 59.8888 136.283 60.1287C136.139 60.4453 136.081 60.7524 136.072 61.2802C136.072 61.6736 136.129 62.1726 136.206 62.3837C136.273 62.5948 136.494 62.9402 136.676 63.1418C136.887 63.3625 137.29 63.6407 137.693 63.8327C138.058 63.9958 138.509 64.2645 138.691 64.4084C138.874 64.562 139.075 64.8306 139.152 65.0034C139.219 65.1665 139.277 65.5119 139.277 65.771C139.277 66.0493 139.2 66.3852 139.066 66.6539C138.941 66.8937 138.691 67.1816 138.509 67.3064C138.327 67.4215 138.029 67.5175 137.856 67.5175C137.693 67.5175 137.425 67.4503 137.261 67.3735C137.098 67.2968 136.858 67.0665 136.715 66.8746C136.682 66.8288 136.65 66.784 136.619 66.7418C136.516 66.5982 136.434 66.4842 136.427 66.4619C136.407 66.4331 136.292 66.5195 136.158 66.6539C136.024 66.7882 135.918 66.9513 135.918 67.0185C135.918 67.0761 136.12 67.3448 136.369 67.5942C136.705 67.9301 136.954 68.0836 137.281 68.17C137.54 68.2372 137.818 68.2851 137.904 68.2851C138 68.2851 138.24 68.2372 138.432 68.1892C138.634 68.1316 138.931 67.9781 139.094 67.8341C139.267 67.6806 139.507 67.3543 139.632 67.0857C139.785 66.7882 139.891 66.366 139.92 65.9821C139.958 65.5599 139.929 65.1857 139.824 64.8306C139.737 64.5428 139.536 64.1397 139.373 63.9478C139.181 63.6983 138.797 63.4392 138.154 63.1322C137.53 62.8155 137.146 62.566 136.983 62.3453C136.801 62.1054 136.724 61.8655 136.695 61.4817C136.667 61.0595 136.705 60.8483 136.887 60.4741C137.012 60.215 137.242 59.9271 137.405 59.8312C137.569 59.7352 137.837 59.6489 138 59.6489C138.173 59.6489 138.432 59.7064 138.576 59.7832C138.73 59.8504 138.95 60.0423 139.085 60.2054L139.325 60.5029L139.9 59.9463C139.209 59.265 138.883 59.0539 138.653 58.9867ZM148.172 59.0251C147.903 58.9484 147.519 58.8812 147.337 58.8908C147.155 58.8908 146.8 58.958 146.541 59.0347C146.243 59.1211 145.907 59.3418 145.552 59.6776C145.197 60.0039 144.9 60.3973 144.689 60.8483C144.487 61.2418 144.295 61.8559 144.209 62.3357C144.113 62.8827 144.075 63.42 144.113 63.967C144.142 64.418 144.238 65.0417 144.324 65.3584C144.401 65.6751 144.612 66.1933 144.775 66.5003C144.948 66.8074 145.312 67.2776 145.581 67.5367C145.936 67.8533 146.243 68.0453 146.589 68.1412C146.867 68.218 147.222 68.2851 147.385 68.2851C147.548 68.2851 147.903 68.218 148.172 68.1412C148.537 68.0357 148.834 67.8533 149.218 67.4983C149.573 67.1624 149.87 66.769 150.082 66.318C150.283 65.9246 150.475 65.3104 150.561 64.8306C150.657 64.2837 150.696 63.7463 150.657 63.1993C150.629 62.7483 150.533 62.1246 150.446 61.8079C150.369 61.4913 150.158 60.9731 149.995 60.666C149.823 60.359 149.458 59.8888 149.18 59.6297C148.834 59.313 148.527 59.1211 148.172 59.0251ZM44.4118 59.1883L43.1451 59.1499L43.1259 68.0932C44.8148 68.0932 45.4769 68.0453 45.7168 67.9685C45.9567 67.9013 46.283 67.7574 46.4365 67.6422C46.5996 67.5367 46.8395 67.2392 46.9835 66.9801C47.1274 66.721 47.2713 66.27 47.3097 65.9821C47.3385 65.6943 47.3193 65.2049 47.2617 64.9074C47.185 64.514 47.0698 64.2453 46.8491 64.0054C46.6764 63.8135 46.4173 63.5928 46.2734 63.5256L46.0047 63.3913C46.4749 62.9786 46.686 62.7003 46.7819 62.5084C46.9163 62.2493 46.9643 61.9327 46.9643 61.4241C46.9643 60.9923 46.9067 60.5605 46.8107 60.3494C46.734 60.1478 46.5708 59.8792 46.4557 59.764C46.3405 59.6393 46.1198 59.4665 45.9567 59.3802C45.7456 59.2746 45.3138 59.217 44.4118 59.1883ZM50.1501 59.1691H49.0754V68.0932H49.6511V63.871H50.7546C52.0693 67.0377 52.4819 67.9877 52.5107 68.0261C52.5491 68.0644 52.7314 68.0932 52.9233 68.074L53.2688 68.0453C51.695 64.3604 51.4935 63.8039 51.5895 63.7559C51.6567 63.7175 51.7622 63.6887 51.8294 63.6791C51.8965 63.6791 52.1077 63.5448 52.2996 63.3721C52.4915 63.1993 52.741 62.8635 52.8465 62.6236C52.9809 62.3165 53.0289 61.9903 53.0289 61.4721C53.0289 61.0307 52.9617 60.6084 52.8657 60.3685C52.7794 60.1574 52.5875 59.8696 52.4531 59.716C52.3092 59.5721 51.9733 59.3898 51.7142 59.313C51.4168 59.2266 50.8218 59.1691 50.1501 59.1691ZM64.8702 59.1691H64.5535L63.2293 63.516C62.5 65.9054 61.8763 67.9109 61.8475 67.9877C61.7995 68.0836 61.8763 68.1124 62.1641 68.0836L62.548 68.0453L63.2293 65.6943H66.4919L67.1636 68.0453C67.8257 68.0932 67.8737 68.0644 67.8353 67.9301C67.8065 67.8341 67.25 65.9725 66.5782 63.7751C66.4254 63.2699 66.2766 62.7785 66.1375 62.3194C65.6745 60.7901 65.3197 59.6186 65.2828 59.4857C65.206 59.217 65.1485 59.1691 64.8702 59.1691ZM70.5989 59.1787L69.2459 59.1499L69.2267 68.0932C71.856 68.0453 71.9999 68.0261 72.4893 67.7862C72.7772 67.6422 73.209 67.3256 73.4393 67.0665C73.6792 66.817 73.9863 66.3468 74.1302 66.0301C74.2741 65.7135 74.4373 65.1953 74.4949 64.8786C74.5524 64.562 74.6004 63.9958 74.6004 63.6311C74.6004 63.2569 74.5524 62.7003 74.4949 62.3837C74.4373 62.067 74.2741 61.5488 74.1302 61.2322C73.9863 60.9155 73.6792 60.4453 73.4393 60.1958C73.209 59.9367 72.7772 59.6105 72.4893 59.4761C72.0095 59.2362 71.8368 59.217 70.5989 59.1787ZM77.6135 59.1883L76.3468 59.1403L76.3277 68.0932C78.0165 68.0932 78.6691 68.0357 78.9185 67.9685C79.1584 67.9013 79.4751 67.7478 79.6382 67.6422C79.7918 67.5367 80.0413 67.2296 80.1852 66.9705C80.3291 66.721 80.4731 66.27 80.5115 65.9821C80.5403 65.6847 80.5211 65.2049 80.4635 64.8978C80.3867 64.5044 80.262 64.2453 80.0413 63.9958C79.8781 63.8039 79.619 63.5928 79.4655 63.516L79.2064 63.3913C79.6766 62.9786 79.8877 62.7004 79.9837 62.4988C80.1084 62.2493 80.166 61.9327 80.166 61.4241C80.166 60.9923 80.1084 60.5605 80.0125 60.3398C79.9357 60.1478 79.7726 59.8792 79.6574 59.7544C79.5423 59.6297 79.312 59.4665 79.1584 59.3802C78.9473 59.265 78.5155 59.217 77.6135 59.1883ZM84.6377 59.1595H84.321L82.9968 63.5064C82.2675 65.8862 81.6438 67.9013 81.615 67.9781C81.567 68.074 81.6438 68.0932 81.9317 68.074L82.3155 68.0357L82.9968 65.6847H86.2594L86.9311 68.0357C87.5932 68.0836 87.6412 68.0548 87.6028 67.9205C87.574 67.8245 87.0079 65.9534 86.3458 63.7655C85.6836 61.5776 85.0983 59.6393 85.0503 59.4761C84.9735 59.1979 84.916 59.1595 84.6377 59.1595ZM89.6947 59.2075L88.9079 59.1403L88.8983 68.0836H89.474C89.474 61.4721 89.4932 60.6948 89.5892 60.7236C89.6563 60.7428 90.4912 62.3933 91.4508 64.3892L93.1876 68.0357L93.9841 68.0836V59.1595H93.4083C93.4083 65.6751 93.3795 66.4427 93.2836 66.414C93.2164 66.3948 92.3816 64.7635 91.4316 62.7963L89.6947 59.2075ZM97.4674 59.1595L96.1048 59.1307L96.0952 68.074C98.7148 68.0261 98.8684 68.0069 99.3578 67.767C99.6456 67.623 100.077 67.3064 100.308 67.0473C100.548 66.7882 100.855 66.3276 100.999 66.0109C101.133 65.6943 101.306 65.1761 101.363 64.8594C101.421 64.5428 101.469 63.9766 101.469 63.612C101.469 63.2377 101.421 62.6812 101.363 62.3645C101.306 62.0478 101.133 61.5297 100.999 61.213C100.855 60.8963 100.548 60.4261 100.308 60.167C100.077 59.9175 99.6456 59.5913 99.3578 59.4473C98.8684 59.217 98.7052 59.1883 97.4674 59.1595ZM109.712 59.1499H105.777V68.074H109.808V67.3064H106.353V63.7559H109.424V62.9882H106.353V59.9175H109.712V59.1499ZM111.727 59.1499H110.95L113.07 63.3721L110.786 68.0261C111.247 68.0644 111.429 68.0644 111.487 68.0357C111.535 68.0165 111.986 67.1337 112.495 66.0685C112.994 65.0034 113.425 64.1397 113.454 64.1301C113.473 64.1301 113.934 65.0226 114.462 66.1069L115.421 68.074C115.978 68.074 116.141 68.0452 116.141 68.0261C116.141 67.9973 115.623 66.9513 114.999 65.6943L113.857 63.42C114.98 61.1842 115.45 60.2246 115.623 59.8408L115.949 59.1499L115.229 59.1403L113.483 62.7483L111.727 59.1499ZM118.598 59.1499H117.571V68.074H118.147V63.9958C119.864 63.8902 120.094 63.8423 120.469 63.6311C120.824 63.4296 120.987 63.2569 121.169 62.8635C121.371 62.4413 121.409 62.2206 121.409 61.5488C121.409 60.8963 121.361 60.6276 121.188 60.2534C121.064 59.9847 120.833 59.6777 120.68 59.5625C120.526 59.4473 120.229 59.313 120.018 59.2554C119.807 59.1979 119.164 59.1499 118.598 59.1499ZM124.825 59.1499H124.509L123.184 63.4872C122.455 65.8766 121.831 67.8917 121.803 67.9589C121.755 68.0645 121.831 68.0836 122.129 68.0549L122.503 68.0261L123.184 65.6655L126.447 65.6751L127.119 68.0261C127.781 68.0644 127.829 68.0453 127.79 67.9013L127.772 67.8388C127.666 67.4844 127.148 65.7565 126.543 63.7559C126.173 62.5451 125.832 61.4158 125.591 60.617C125.394 59.966 125.264 59.5345 125.238 59.4569C125.161 59.1883 125.104 59.1499 124.825 59.1499ZM131.715 62.7867L129.978 59.1978L129.191 59.1403L129.182 68.074H129.758C129.758 61.4721 129.786 60.6948 129.873 60.714C129.94 60.7332 130.775 62.3933 131.734 64.3892L133.471 68.0261L134.268 68.074V59.1499H133.692C133.692 65.6655 133.663 66.4331 133.567 66.414C133.51 66.3948 132.675 64.7635 131.715 62.7867ZM142.328 59.1499H141.752V68.074H142.328V59.1499ZM153.104 59.1978L152.317 59.1403L152.308 68.074H152.884C152.884 61.4721 152.903 60.6948 152.999 60.7236C153.066 60.7428 153.901 62.3933 154.86 64.3892L156.597 68.0261L157.394 68.074V59.1499H156.818C156.818 65.6655 156.789 66.4331 156.693 66.414C156.626 66.3948 155.791 64.7635 154.841 62.7867L153.104 59.1978ZM164.168 59.1499H163.852L162.527 63.4968C161.798 65.8862 161.174 67.8917 161.146 67.9685C161.098 68.0644 161.174 68.0932 161.462 68.0644L161.846 68.0261L162.527 65.6751H165.79L166.462 68.0261C167.124 68.074 167.172 68.0549 167.133 67.9109L167.124 67.8793C167.043 67.6091 166.511 65.8324 165.876 63.7559C165.724 63.2539 165.577 62.7655 165.438 62.3088C164.974 60.7753 164.618 59.5996 164.581 59.4665C164.504 59.1979 164.447 59.1499 164.168 59.1499ZM169.321 59.1978L168.534 59.1403L168.525 68.074H169.101C169.101 61.4721 169.12 60.6948 169.216 60.714C169.283 60.7332 170.118 62.3837 171.077 64.3892L172.814 68.0261L173.611 68.074V59.1499H173.035C173.035 65.6655 173.006 66.4332 172.91 66.4044C172.843 66.3948 172.008 64.7635 171.058 62.7867L169.321 59.1978ZM177.094 59.1691L175.731 59.1307L175.722 68.074C178.341 68.0261 178.495 68.0069 178.984 67.767C179.272 67.6326 179.704 67.3064 179.934 67.0473C180.174 66.7978 180.481 66.3276 180.625 66.0109C180.76 65.6943 180.932 65.1761 180.99 64.8594C181.048 64.5428 181.095 63.9766 181.095 63.612C181.095 63.2377 181.048 62.6812 180.99 62.3645C180.932 62.0478 180.76 61.5297 180.625 61.213C180.481 60.8963 180.174 60.4261 179.934 60.1766C179.704 59.9175 179.272 59.5913 178.984 59.4569C178.495 59.217 178.332 59.1979 177.094 59.1691ZM53.4607 71.9412C53.2688 71.8644 52.8849 71.7877 52.597 71.7589C52.2804 71.7397 51.887 71.7781 51.6087 71.8644C51.3112 71.9604 50.9658 72.1811 50.6203 72.5073C50.2557 72.8432 49.9678 73.2366 49.7471 73.6876C49.5647 74.0715 49.3632 74.6856 49.2865 75.127C49.2097 75.5492 49.1425 76.1346 49.1425 76.4225C49.1425 76.7103 49.2097 77.2957 49.2865 77.7179C49.3632 78.1401 49.5647 78.783 49.7471 79.1573C49.9198 79.5219 50.2556 80.0209 50.4955 80.2512C50.7258 80.4815 51.1097 80.7598 51.3496 80.8749C51.6471 81.0093 51.9733 81.0669 52.4531 81.0765C53.0289 81.0765 53.192 81.0381 53.6526 80.779C53.998 80.5775 54.2859 80.3184 54.497 80.0113C54.6698 79.7522 54.8041 79.5027 54.8041 79.4644C54.8041 79.426 54.6889 79.3204 54.545 79.2245C54.3243 79.0805 54.2763 79.0805 54.2379 79.2053C54.2092 79.282 54.0556 79.4931 53.8925 79.6755C53.7294 79.8578 53.4319 80.0785 53.2208 80.1744C53.0097 80.2704 52.6354 80.3568 52.4051 80.3568C52.0789 80.3568 51.839 80.28 51.4455 80.0401C51.1289 79.8482 50.8026 79.5507 50.6011 79.2532C50.4284 78.9846 50.1885 78.4664 50.0733 78.1017C49.9198 77.5932 49.8622 77.1805 49.8622 76.4225C49.8622 75.6644 49.9198 75.2518 50.0733 74.7432C50.1885 74.3689 50.4188 73.8604 50.5915 73.5917C50.7738 73.3326 51.1001 72.9871 51.3304 72.824C51.695 72.5745 51.8294 72.5361 52.3955 72.5361C52.9425 72.5361 53.096 72.5745 53.4127 72.7952C53.6238 72.9392 53.8829 73.1886 53.9884 73.3422L54.1804 73.6301C54.6698 73.1311 54.6889 73.0927 54.5738 72.872C54.497 72.7376 54.2955 72.5073 54.1132 72.3538C53.9405 72.2003 53.643 72.018 53.4607 71.9412ZM60.0818 71.9412C59.8899 71.8644 59.5061 71.7877 59.2182 71.7589C58.9015 71.7397 58.5081 71.7781 58.2298 71.8644C57.9324 71.9604 57.5869 72.1811 57.2415 72.5073C56.8768 72.8432 56.5889 73.2366 56.3682 73.6876C56.1859 74.0715 55.9844 74.6856 55.9076 75.127C55.8309 75.5492 55.7637 76.1346 55.7637 76.4225C55.7637 76.7103 55.8309 77.2957 55.9076 77.7179C55.9844 78.1401 56.1859 78.783 56.3682 79.1573C56.541 79.5219 56.8768 80.0209 57.1167 80.2512C57.347 80.4815 57.7308 80.7598 57.9707 80.8749C58.2682 81.0093 58.5945 81.0669 59.0743 81.0765C59.65 81.0765 59.8131 81.0381 60.2738 80.779C60.6192 80.5775 60.9071 80.3184 61.1182 80.0113C61.2909 79.7522 61.4253 79.5027 61.4253 79.4644C61.4253 79.426 61.3101 79.3204 61.1662 79.2245C60.9455 79.0805 60.8975 79.0805 60.8591 79.2053C60.8303 79.282 60.6768 79.4931 60.5136 79.6755C60.3505 79.8578 60.053 80.0785 59.8419 80.1744C59.6308 80.2704 59.2566 80.3568 59.0263 80.3568C58.7 80.3568 58.4601 80.28 58.0667 80.0401C57.75 79.8482 57.4238 79.5507 57.2223 79.2532C57.0495 78.9846 56.8096 78.4664 56.6945 78.1017C56.541 77.5932 56.4834 77.1805 56.4834 76.4225C56.4834 75.6644 56.541 75.2518 56.6945 74.7432C56.8096 74.3689 57.0399 73.8604 57.2127 73.5917C57.395 73.3326 57.7212 72.9871 57.9515 72.824C58.3162 72.5745 58.4505 72.5361 59.0167 72.5361C59.5637 72.5361 59.7172 72.5745 60.0339 72.7952C60.245 72.9392 60.5041 73.1886 60.6096 73.3422L60.8015 73.6301C61.2909 73.1311 61.3101 73.0927 61.195 72.872C61.1182 72.7376 60.9167 72.5073 60.7344 72.3538C60.5616 72.2003 60.2642 72.018 60.0818 71.9412ZM70.9732 71.826C70.762 71.7685 70.4742 71.7205 70.3494 71.7205C70.2151 71.7301 69.9368 71.7876 69.7257 71.8644C69.5146 71.9412 69.2171 72.1235 69.0732 72.2674C68.9292 72.4114 68.7085 72.728 68.603 72.9679C68.4494 73.2846 68.3919 73.5917 68.3919 74.1194C68.3919 74.5129 68.4494 75.0119 68.5166 75.223C68.5934 75.4341 68.8045 75.7699 68.9964 75.981C69.1979 76.2018 69.6105 76.48 70.0136 76.6624C70.3782 76.8351 70.8292 77.1038 71.0115 77.2477C71.1939 77.4012 71.3954 77.6603 71.4625 77.8331C71.5393 78.0058 71.5969 78.3512 71.5969 78.6007C71.5969 78.8886 71.5105 79.2245 71.3762 79.4931C71.261 79.7234 71.0115 80.0209 70.8292 80.1457C70.6373 80.2608 70.3494 80.3568 70.1767 80.3568C70.004 80.3568 69.7353 80.2896 69.5818 80.2128C69.4186 80.1361 69.1691 79.9058 69.0348 79.7042C68.8909 79.5123 68.7565 79.33 68.7373 79.3012C68.7277 79.2724 68.603 79.3588 68.4686 79.4931C68.3343 79.6275 68.2287 79.781 68.2287 79.8482C68.2383 79.9154 68.4398 80.184 68.6893 80.4335C69.0252 80.7694 69.2651 80.9229 69.6009 81.0093C69.8504 81.0765 70.1383 81.1244 70.2247 81.1244C70.3206 81.1244 70.5605 81.0765 70.7525 81.0285C70.954 80.9709 71.2514 80.8078 71.4146 80.6638C71.5777 80.5199 71.8272 80.184 71.9519 79.9249C72.0959 79.6275 72.211 79.2053 72.2398 78.8214C72.2782 78.3992 72.2398 78.025 72.1343 77.6699C72.0575 77.382 71.856 76.979 71.6928 76.7775C71.4913 76.5376 71.1075 76.2785 70.4742 75.9619C69.8408 75.6548 69.4666 75.4053 69.2939 75.1846C69.1212 74.9447 69.0444 74.7048 69.0156 74.321C68.9772 73.8891 69.0252 73.6876 69.2075 73.3134C69.3323 73.0543 69.5626 72.7664 69.7257 72.6705C69.8792 72.5745 70.1479 72.4881 70.3206 72.4881C70.4934 72.4881 70.7525 72.5457 70.8964 72.6225C71.0403 72.6897 71.2706 72.8816 71.405 73.0447L71.6449 73.3422L72.2206 72.776C71.5297 72.1043 71.1939 71.8932 70.9732 71.826ZM76.3468 71.826C76.1357 71.7685 75.8479 71.7205 75.7231 71.7205C75.5888 71.7301 75.3105 71.7876 75.0994 71.8644C74.8883 71.9412 74.5908 72.1235 74.4469 72.2674C74.3029 72.4114 74.0822 72.728 73.9767 72.9679C73.8231 73.2846 73.7656 73.5917 73.7656 74.1194C73.7656 74.5129 73.8231 75.0119 73.8903 75.223C73.9671 75.4341 74.1782 75.7699 74.3701 75.981C74.5716 76.2018 74.9842 76.48 75.3873 76.6624C75.7519 76.8351 76.2029 77.1038 76.3852 77.2477C76.5676 77.4012 76.7691 77.6603 76.8362 77.8331C76.913 78.0058 76.9706 78.3512 76.9706 78.6007C76.9706 78.8886 76.8842 79.2245 76.7499 79.4931C76.6347 79.7234 76.3852 80.0209 76.2029 80.1457C76.011 80.2608 75.7231 80.3568 75.5504 80.3568C75.3777 80.3568 75.109 80.2896 74.9554 80.2128C74.7923 80.1361 74.5428 79.9058 74.4085 79.7042C74.2645 79.5123 74.1302 79.33 74.111 79.3012C74.1014 79.2724 73.9767 79.3588 73.8423 79.4931C73.708 79.6275 73.6024 79.781 73.6024 79.8482C73.612 79.9154 73.8135 80.184 74.063 80.4335C74.3989 80.7694 74.6388 80.9229 74.9746 81.0093C75.2241 81.0765 75.512 81.1244 75.5984 81.1244C75.6943 81.1244 75.9342 81.0765 76.1261 81.0285C76.3277 80.9709 76.6251 80.8078 76.7883 80.6638C76.9514 80.5199 77.2009 80.184 77.3256 79.9249C77.4696 79.6275 77.5847 79.2053 77.6135 78.8214C77.6519 78.3992 77.6135 78.025 77.5079 77.6699C77.4312 77.382 77.2297 76.979 77.0665 76.7775C76.865 76.5376 76.4812 76.2785 75.8479 75.9619C75.2145 75.6548 74.8403 75.4053 74.6676 75.1846C74.4948 74.9447 74.4181 74.7048 74.3893 74.321C74.3509 73.8891 74.3989 73.6876 74.5812 73.3134C74.706 73.0543 74.9363 72.7664 75.0994 72.6705C75.2529 72.5745 75.5216 72.4881 75.6943 72.4881C75.8671 72.4881 76.1261 72.5457 76.2701 72.6225C76.414 72.6897 76.6443 72.8816 76.7787 73.0447L77.0186 73.3422L77.5943 72.776C76.9034 72.1043 76.5676 71.8932 76.3468 71.826ZM115.901 71.8644C115.623 71.7781 115.249 71.7205 115.066 71.7205C114.874 71.7301 114.519 71.7972 114.27 71.874C113.972 71.9604 113.636 72.1811 113.281 72.5073C112.917 72.8432 112.629 73.2366 112.408 73.6876C112.216 74.0811 112.024 74.6952 111.938 75.175C111.832 75.722 111.804 76.2593 111.842 76.8063C111.871 77.2573 111.967 77.881 112.044 78.1977C112.13 78.5144 112.331 79.0229 112.504 79.3396C112.667 79.6467 113.032 80.1169 113.31 80.3664C113.656 80.6926 113.972 80.8845 114.318 80.9805C114.596 81.0573 114.951 81.1244 115.114 81.1244C115.268 81.1244 115.623 81.0573 115.901 80.9805C116.266 80.8749 116.554 80.6926 116.947 80.328C117.302 79.9921 117.59 79.5987 117.811 79.1573C118.003 78.7639 118.204 78.1497 118.29 77.6699C118.386 77.123 118.415 76.5856 118.377 76.0386C118.348 75.5876 118.262 74.9639 118.175 74.6472C118.089 74.3306 117.887 73.8124 117.724 73.5053C117.552 73.1887 117.187 72.7281 116.909 72.469C116.563 72.1523 116.247 71.9604 115.901 71.8644ZM141.887 71.826C141.676 71.7685 141.388 71.7205 141.263 71.7205C141.129 71.7301 140.85 71.7876 140.639 71.8644C140.428 71.9412 140.131 72.1235 139.987 72.2674C139.843 72.4114 139.622 72.728 139.517 72.9679C139.363 73.2846 139.305 73.5917 139.305 74.1194C139.305 74.5129 139.363 75.0119 139.43 75.223C139.507 75.4341 139.718 75.7699 139.91 75.981C140.111 76.2018 140.524 76.48 140.927 76.6624C141.292 76.8351 141.743 77.1038 141.925 77.2477C142.107 77.4012 142.309 77.6603 142.376 77.8331C142.453 78.0058 142.51 78.3512 142.51 78.6007C142.51 78.8886 142.424 79.2245 142.29 79.4931C142.175 79.7234 141.925 80.0209 141.743 80.1457C141.551 80.2608 141.263 80.3568 141.09 80.3568C140.918 80.3568 140.649 80.2896 140.495 80.2128C140.332 80.1361 140.083 79.9058 139.948 79.7042C139.804 79.5123 139.67 79.33 139.651 79.3012C139.641 79.2724 139.517 79.3588 139.382 79.4931C139.248 79.6275 139.142 79.781 139.142 79.8482C139.152 79.9154 139.353 80.184 139.603 80.4335C139.939 80.7694 140.179 80.9229 140.514 81.0093C140.764 81.0765 141.052 81.1244 141.138 81.1244C141.234 81.1244 141.474 81.0765 141.666 81.0285C141.868 80.9709 142.165 80.8078 142.328 80.6638C142.491 80.5199 142.741 80.184 142.865 79.9249C143.009 79.6275 143.125 79.2053 143.153 78.8214C143.192 78.3992 143.153 78.025 143.048 77.6699C142.971 77.382 142.77 76.979 142.606 76.7775C142.405 76.5376 142.021 76.2785 141.388 75.9619C140.754 75.6548 140.38 75.4053 140.207 75.1846C140.035 74.9447 139.958 74.7048 139.929 74.321C139.891 73.8891 139.939 73.6876 140.121 73.3134C140.246 73.0543 140.476 72.7664 140.639 72.6705C140.793 72.5745 141.061 72.4881 141.234 72.4881C141.407 72.4881 141.666 72.5457 141.81 72.6225C141.954 72.6897 142.184 72.8816 142.319 73.0447L142.558 73.3422L143.134 72.776C142.443 72.1043 142.107 71.8932 141.887 71.826ZM147.26 71.826C147.049 71.7685 146.761 71.7205 146.637 71.7205C146.502 71.7301 146.224 71.7876 146.013 71.8644C145.802 71.9412 145.504 72.1235 145.36 72.2674C145.216 72.4114 144.996 72.728 144.89 72.9679C144.737 73.2846 144.679 73.5917 144.679 74.1194C144.679 74.5129 144.737 75.0119 144.804 75.223C144.881 75.4341 145.092 75.7699 145.284 75.981C145.485 76.2018 145.898 76.48 146.301 76.6624C146.665 76.8351 147.116 77.1038 147.299 77.2477C147.481 77.4012 147.683 77.6603 147.75 77.8331C147.827 78.0058 147.884 78.3512 147.884 78.6007C147.884 78.8886 147.798 79.2245 147.663 79.4931C147.548 79.7234 147.299 80.0209 147.116 80.1457C146.925 80.2608 146.637 80.3568 146.464 80.3568C146.291 80.3568 146.023 80.2896 145.869 80.2128C145.706 80.1361 145.456 79.9058 145.322 79.7042C145.178 79.5123 145.044 79.33 145.025 79.3012C145.015 79.2724 144.89 79.3588 144.756 79.4931C144.622 79.6275 144.516 79.781 144.516 79.8482C144.526 79.9154 144.727 80.184 144.977 80.4335C145.312 80.7694 145.552 80.9229 145.888 81.0093C146.138 81.0765 146.426 81.1244 146.512 81.1244C146.608 81.1244 146.848 81.0765 147.04 81.0285C147.241 80.9709 147.539 80.8078 147.702 80.6638C147.865 80.5199 148.114 80.184 148.239 79.9249C148.383 79.6275 148.498 79.2053 148.527 78.8214C148.565 78.3992 148.527 78.025 148.422 77.6699C148.345 77.382 148.143 76.979 147.98 76.7775C147.779 76.5376 147.395 76.2785 146.761 75.9619C146.128 75.6548 145.754 75.4053 145.581 75.1846C145.408 74.9447 145.332 74.7048 145.303 74.321C145.264 73.8891 145.312 73.6876 145.495 73.3134C145.62 73.0543 145.85 72.7664 146.013 72.6705C146.166 72.5745 146.435 72.4881 146.608 72.4881C146.781 72.4881 147.04 72.5457 147.184 72.6225C147.328 72.6897 147.558 72.8816 147.692 73.0447L147.932 73.3422L148.508 72.776C147.817 72.1043 147.481 71.8932 147.26 71.826ZM155.321 71.826C155.11 71.7685 154.822 71.7205 154.697 71.7205C154.563 71.7301 154.285 71.7876 154.073 71.8644C153.862 71.9412 153.565 72.1235 153.421 72.2674C153.277 72.4114 153.056 72.728 152.951 72.9679C152.797 73.2846 152.74 73.5917 152.74 74.1194C152.74 74.5129 152.797 75.0119 152.864 75.223C152.941 75.4341 153.152 75.7699 153.344 75.981C153.546 76.2018 153.958 76.48 154.361 76.6624C154.726 76.8351 155.177 77.1038 155.359 77.2477C155.542 77.4012 155.743 77.6603 155.81 77.8331C155.887 78.0058 155.945 78.3512 155.945 78.6007C155.945 78.8886 155.858 79.2245 155.724 79.4931C155.609 79.7234 155.359 80.0209 155.177 80.1457C154.985 80.2608 154.697 80.3568 154.524 80.3568C154.352 80.3568 154.083 80.2896 153.93 80.2128C153.766 80.1361 153.517 79.9058 153.383 79.7042C153.239 79.5123 153.104 79.33 153.085 79.3012C153.076 79.2724 152.951 79.3588 152.816 79.4931C152.682 79.6275 152.577 79.781 152.577 79.8482C152.586 79.9154 152.788 80.184 153.037 80.4335C153.373 80.7694 153.613 80.9229 153.949 81.0093C154.198 81.0765 154.486 81.1244 154.572 81.1244C154.668 81.1244 154.908 81.0765 155.1 81.0285C155.302 80.9709 155.599 80.8078 155.762 80.6638C155.925 80.5199 156.175 80.184 156.3 79.9249C156.444 79.6275 156.559 79.2053 156.588 78.8214C156.626 78.3992 156.588 78.025 156.482 77.6699C156.405 77.382 156.204 76.979 156.041 76.7775C155.839 76.5376 155.455 76.2785 154.822 75.9619C154.189 75.6548 153.814 75.4053 153.642 75.1846C153.469 74.9447 153.392 74.7048 153.363 74.321C153.325 73.8891 153.373 73.6876 153.555 73.3134C153.68 73.0543 153.91 72.7664 154.073 72.6705C154.227 72.5745 154.496 72.4881 154.668 72.4881C154.841 72.4881 155.1 72.5457 155.244 72.6225C155.388 72.6897 155.618 72.8816 155.753 73.0447L155.993 73.3422L156.568 72.776C155.878 72.1043 155.542 71.8932 155.321 71.826ZM160.695 71.826C160.484 71.7685 160.196 71.7205 160.071 71.7205C159.937 71.7301 159.658 71.7876 159.447 71.8644C159.236 71.9412 158.939 72.1235 158.795 72.2674C158.651 72.4114 158.43 72.728 158.324 72.9679C158.171 73.2846 158.113 73.5917 158.113 74.1194C158.113 74.5129 158.171 75.0119 158.238 75.223C158.315 75.4341 158.526 75.7699 158.718 75.981C158.919 76.2018 159.332 76.48 159.735 76.6624C160.1 76.8351 160.551 77.1038 160.733 77.2477C160.915 77.4012 161.117 77.6603 161.184 77.8331C161.261 78.0058 161.318 78.3512 161.318 78.6007C161.318 78.8886 161.232 79.2245 161.098 79.4931C160.983 79.7234 160.733 80.0209 160.551 80.1457C160.359 80.2608 160.071 80.3568 159.898 80.3568C159.725 80.3568 159.457 80.2896 159.303 80.2128C159.14 80.1361 158.891 79.9058 158.756 79.7042C158.612 79.5123 158.478 79.33 158.459 79.3012C158.449 79.2724 158.324 79.3588 158.19 79.4931C158.056 79.6275 157.95 79.781 157.95 79.8482C157.96 79.9154 158.161 80.184 158.411 80.4335C158.747 80.7694 158.987 80.9229 159.322 81.0093C159.572 81.0765 159.86 81.1244 159.946 81.1244C160.042 81.1244 160.282 81.0765 160.474 81.0285C160.675 80.9709 160.973 80.8078 161.136 80.6638C161.299 80.5199 161.549 80.184 161.673 79.9249C161.817 79.6275 161.933 79.2053 161.961 78.8214C162 78.3992 161.961 78.025 161.856 77.6699C161.779 77.382 161.577 76.979 161.414 76.7775C161.213 76.5376 160.829 76.2785 160.196 75.9619C159.562 75.6548 159.188 75.4053 159.015 75.1846C158.843 74.9447 158.766 74.7048 158.737 74.321C158.699 73.8891 158.747 73.6876 158.929 73.3134C159.054 73.0543 159.284 72.7664 159.447 72.6705C159.601 72.5745 159.869 72.4881 160.042 72.4881C160.215 72.4881 160.474 72.5457 160.618 72.6225C160.762 72.6897 160.992 72.8816 161.126 73.0447L161.366 73.3422L161.942 72.776C161.251 72.1043 160.915 71.8932 160.695 71.826ZM45.3618 72.0084H45.0451L43.7209 76.3457C42.9916 78.7351 42.3678 80.7502 42.3391 80.8174C42.2911 80.9229 42.3678 80.9421 42.6557 80.9133L43.0396 80.8845L43.7209 78.5336H46.9835L47.6552 80.8845C48.3173 80.9229 48.3653 80.9037 48.3269 80.7598C48.3179 80.7329 48.2576 80.5323 48.1584 80.2026C47.9397 79.4753 47.532 78.1198 47.0698 76.6144C46.7388 75.5204 46.4293 74.4888 46.1954 73.7092C45.9615 72.9295 45.8032 72.4018 45.7744 72.3154C45.6976 72.0467 45.64 72.0084 45.3618 72.0084ZM66.8949 72.0084H62.9606V80.9325H66.9909V80.1648H63.5364V76.6144H66.607V75.8467H63.5364V72.776H66.8949V72.0084ZM79.9453 72.0084H79.3696V80.9325H79.9453V72.0084ZM83.3422 72.0275L82.0756 71.9892L82.0564 80.9325C83.7453 80.9421 84.3978 80.8845 84.6473 80.8174C84.8872 80.7406 85.2038 80.5967 85.367 80.4911C85.5205 80.376 85.77 80.0785 85.9139 79.8194C86.0579 79.5603 86.2018 79.1189 86.2306 78.8214C86.269 78.5336 86.2498 78.0538 86.1922 77.7467C86.1155 77.3533 85.9907 77.0942 85.77 76.8447C85.5973 76.6528 85.3382 76.4417 85.1943 76.3649L84.9352 76.2305C85.3958 75.8275 85.6165 75.5396 85.7124 75.3477C85.8372 75.0886 85.8948 74.772 85.8948 74.2634C85.8948 73.8316 85.8372 73.3998 85.7412 73.1887C85.6645 72.9871 85.5013 72.728 85.3862 72.6033C85.271 72.4786 85.0407 72.3058 84.8872 72.2195C84.6761 72.1139 84.2443 72.0563 83.3422 72.0275ZM88.668 72.018H88.0922V80.9421H88.668V72.018ZM91.2589 72.018H90.6831V80.9421H94.2336V80.1744H91.2589V72.018ZM96.2487 72.018H95.673V80.9421H96.2487V72.018ZM102.39 72.018H97.4962V72.7856H99.6073V80.9421H100.279V72.7856H102.39V72.018ZM103.59 72.018H102.784L103.225 72.9488C103.289 73.0869 103.374 73.2701 103.472 73.4816C103.743 74.0632 104.112 74.8589 104.415 75.5204L105.173 77.1517V80.9421H105.749V77.1517C107.178 74.1003 107.716 72.9488 107.869 72.6129L108.148 72.018H107.38C105.931 75.2901 105.49 76.2401 105.461 76.2401C105.442 76.2401 105.01 75.2901 104.501 74.129L103.59 72.018ZM123.981 72.018H120.238V80.9421H120.814V76.7199H123.789V75.9523H120.814V72.7856H123.981V72.018ZM129.067 72.018H128.587V80.9421H129.163C129.163 74.9351 129.191 73.6493 129.259 73.6493C129.307 73.6493 129.431 73.9179 129.527 74.2538C129.595 74.4638 129.818 75.2188 130.102 76.1781C130.259 76.7088 130.434 77.3021 130.612 77.9002C131.35 80.3952 131.542 80.9421 131.677 80.9421C131.801 80.9421 131.907 80.7502 132.08 80.1553C132.144 79.9288 132.304 79.384 132.507 78.6934C132.699 78.0379 132.93 77.251 133.154 76.48C133.615 74.8967 134.028 73.5629 134.076 73.5053C134.114 73.4573 134.152 75.1078 134.152 77.1805V80.9421H134.824V72.018H133.817C132.911 75.1678 132.399 76.9635 132.129 77.9098C131.981 78.4279 131.905 78.6914 131.878 78.7831C131.792 79.0709 131.705 79.2245 131.658 79.1669C131.619 79.1189 131.159 77.6219 130.65 75.8563C130.381 74.9217 130.125 74.0382 129.937 73.3879C129.769 72.8097 129.655 72.4159 129.633 72.3346C129.546 72.0371 129.518 72.018 129.067 72.018ZM137.415 72.018H136.839V80.9421H137.415V72.018ZM150.849 72.018H150.273V80.9421H150.849V72.018ZM164.283 72.018H163.708V80.9421H164.283V72.018ZM167.421 72.018H166.395V80.9421H166.97V76.8639C168.678 76.7679 168.918 76.7199 169.293 76.4992C169.648 76.2977 169.801 76.125 169.993 75.7411C170.195 75.3189 170.233 75.0982 170.233 74.4169C170.233 73.774 170.185 73.5053 170.012 73.1215C169.887 72.8624 169.657 72.5553 169.504 72.4402C169.35 72.325 169.053 72.1811 168.842 72.1235C168.63 72.0659 167.988 72.018 167.421 72.018ZM172.987 72.018H171.96V80.9421H172.536V76.8639C174.244 76.7679 174.484 76.7199 174.858 76.4992C175.213 76.2977 175.367 76.125 175.559 75.7411C175.76 75.3189 175.799 75.0982 175.799 74.4169C175.799 73.774 175.751 73.5053 175.578 73.1215C175.453 72.8624 175.223 72.5553 175.069 72.4402C174.916 72.325 174.618 72.1811 174.407 72.1235C174.196 72.0659 173.553 72.018 172.987 72.018ZM178.006 72.018H177.43V80.9421H178.006V72.018ZM56.3974 22.6281L53.7969 22.5897L53.7873 26.6296L53.7777 30.6694C58.8539 30.6119 59.0458 30.5927 59.5832 30.3816C59.9574 30.2376 60.3125 30.0073 60.6004 29.7194C60.8691 29.4412 61.1185 29.0669 61.2625 28.7023C61.4352 28.2417 61.4928 27.8866 61.5312 26.927C61.56 26.1594 61.5312 25.5356 61.4544 25.1998C61.3872 24.9119 61.2433 24.4801 61.1185 24.2402C61.0034 24.0003 60.7155 23.6357 60.4756 23.4245C60.2453 23.2134 59.8135 22.9544 59.5256 22.8584C59.0746 22.6953 58.662 22.6665 56.3974 22.6281ZM126.073 25.9867C125.843 25.4493 125.612 25.0079 125.555 25.0079C125.507 25.0079 125.421 25.0846 125.373 25.171C125.325 25.267 124.922 26.1594 124.471 27.1669C124.029 28.1649 123.002 30.4583 122.196 32.2528C121.947 32.8136 121.71 33.3481 121.5 33.8198L121.495 33.8306L121.492 33.8381C121.035 34.8661 120.712 35.5912 120.699 35.6305C120.671 35.7265 121.688 35.7553 125.555 35.7553H130.449C129.911 34.6037 129.528 33.7497 129.249 33.1164C129.063 32.6917 128.669 31.814 128.245 30.868L128.243 30.8635L128.228 30.8301L128.203 30.7754C128.008 30.3396 127.807 29.8921 127.618 29.47C127.004 28.0977 126.313 26.5336 126.073 25.9867ZM53.7969 38.7108L56.7908 38.7492C59.6312 38.7876 59.8039 38.7971 60.4468 39.0179C60.9842 39.2002 61.2241 39.3537 61.6559 39.7759C62.0302 40.1502 62.2509 40.4764 62.3948 40.8603C62.5099 41.1673 62.6539 41.7335 62.7115 42.1077C62.7882 42.5971 62.7882 43.0481 62.7211 43.6239C62.6635 44.0749 62.5291 44.6794 62.4236 44.9673C62.3084 45.2552 62.0589 45.7062 61.867 45.9653C61.6655 46.2244 61.2913 46.5602 61.0226 46.7042C60.7443 46.8673 60.2261 47.04 59.7751 47.1264C59.2282 47.2223 58.259 47.2607 53.7777 47.2703L53.7873 42.9905L53.7969 38.7108ZM131.917 39.0658L119.164 39.0179L118.368 40.8123C117.926 41.8007 117.552 42.6739 117.533 42.7315C117.504 42.8274 119.154 42.8562 125.555 42.8562H133.615C133.404 42.3764 133.02 41.5224 132.627 40.6492L131.917 39.0658ZM57.8751 59.6682C58.3453 59.697 58.5469 59.7545 58.8827 59.9944C59.1034 60.148 59.4393 60.4934 59.612 60.7621C59.7847 61.0212 60.015 61.5202 60.1206 61.856C60.2261 62.2015 60.3413 62.806 60.3701 63.1995C60.4085 63.7081 60.3701 64.1687 60.2549 64.7348C60.1686 65.1858 59.9862 65.7616 59.8615 66.0111C59.7367 66.2606 59.4872 66.6252 59.3145 66.8075C59.1514 66.9994 58.8155 67.2393 58.5756 67.3545C58.2494 67.4984 58.0095 67.5368 57.5969 67.508C57.1938 67.4792 56.9539 67.4025 56.6373 67.1818C56.4166 67.0186 56.0807 66.6732 55.908 66.4141C55.7353 66.155 55.4954 65.6368 55.3802 65.2626C55.2267 64.7636 55.1787 64.351 55.1787 63.5833C55.1787 62.8924 55.2363 62.403 55.3514 62C55.4474 61.6833 55.6105 61.2707 55.7065 61.0692C55.8024 60.8677 56.0135 60.5702 56.1575 60.3975C56.311 60.2247 56.6277 59.9848 56.858 59.8601C57.1938 59.6874 57.4049 59.649 57.8751 59.6682ZM148.508 59.9944C148.172 59.7545 147.971 59.697 147.501 59.6682C147.03 59.649 146.819 59.6874 146.483 59.8601C146.253 59.9848 145.937 60.2247 145.783 60.3975C145.639 60.5702 145.428 60.8677 145.332 61.0692C145.236 61.2707 145.073 61.6833 144.977 62C144.862 62.403 144.804 62.8924 144.804 63.5833C144.804 64.351 144.852 64.7636 145.006 65.2626C145.121 65.6368 145.361 66.155 145.534 66.4141C145.706 66.6732 146.042 67.0186 146.263 67.1818C146.579 67.4025 146.819 67.4792 147.222 67.508C147.635 67.5368 147.875 67.4984 148.201 67.3545C148.441 67.2393 148.777 66.9994 148.94 66.8075C149.113 66.6252 149.362 66.2606 149.487 66.0111C149.612 65.7616 149.794 65.1858 149.88 64.7348C149.996 64.1687 150.034 63.7081 149.996 63.1995C149.967 62.806 149.852 62.2015 149.746 61.856C149.641 61.5202 149.41 61.0212 149.238 60.7621C149.065 60.4934 148.729 60.148 148.508 59.9944ZM43.702 59.9369H44.4889C45.055 59.9369 45.3813 59.9944 45.6212 60.1096C45.8419 60.2152 46.0338 60.4263 46.1778 60.7045C46.3697 61.0692 46.3985 61.2323 46.3505 61.7121C46.3217 62.0288 46.2353 62.3934 46.149 62.5086C46.0722 62.6237 45.8611 62.806 45.6884 62.9116C45.4485 63.0651 45.2086 63.1035 43.702 63.1035V61.5202V59.9369ZM50.4863 59.9369H49.6515V61.5202V63.1035C51.1292 63.1131 51.4075 63.0651 51.6666 62.9308C51.8489 62.8252 52.0888 62.6333 52.1944 62.4894C52.3479 62.2879 52.3863 62.0768 52.3863 61.5202C52.3863 60.9636 52.3479 60.7621 52.1848 60.551C52.0792 60.3975 51.8393 60.2056 51.657 60.1096C51.4171 59.9849 51.1004 59.9369 50.4863 59.9369ZM69.8028 59.9369L70.7336 59.9465C71.5205 59.9465 71.7508 59.9849 72.1538 60.1672C72.4129 60.2919 72.7679 60.5414 72.9407 60.7237C73.1038 60.8965 73.3533 61.2611 73.478 61.5202C73.6124 61.7889 73.7659 62.2303 73.8235 62.5086C73.8811 62.7868 73.929 63.2954 73.929 63.6313C73.929 63.9767 73.8811 64.4853 73.8235 64.7636C73.7659 65.0419 73.6124 65.4833 73.478 65.7424C73.3533 66.0111 73.1038 66.3757 72.9407 66.5484C72.7679 66.7308 72.4129 66.9802 72.1538 67.105C71.7508 67.2873 71.5205 67.3257 69.8028 67.3257V63.6313V59.9369ZM77.6906 59.9369H76.9038V61.5202V63.1035C78.4103 63.1035 78.6502 63.0651 78.8901 62.9116C79.0628 62.806 79.274 62.6237 79.3507 62.5086C79.4371 62.3934 79.5234 62.0288 79.5522 61.7121C79.6002 61.2323 79.5714 61.0692 79.3795 60.7045C79.2356 60.4263 79.0437 60.2152 78.823 60.1096C78.5831 59.9944 78.2568 59.9369 77.6906 59.9369ZM96.6713 59.9369L97.6021 59.9465C98.3889 59.9465 98.6192 59.9849 99.0223 60.1672C99.2814 60.2919 99.6364 60.5414 99.8091 60.7237C99.9723 60.8965 100.222 61.2611 100.347 61.5202C100.481 61.7889 100.634 62.2303 100.692 62.5086C100.75 62.7868 100.798 63.2954 100.798 63.6313C100.798 63.9767 100.75 64.4853 100.692 64.7636C100.634 65.0419 100.481 65.4833 100.347 65.7424C100.222 66.0111 99.9723 66.3757 99.8091 66.5484C99.6364 66.7308 99.2814 66.9802 99.0223 67.105C98.6192 67.2873 98.3889 67.3257 96.6713 67.3257V63.6313V59.9369ZM118.953 59.9369H118.166V61.5682V63.1995C119.519 63.1995 119.845 63.1515 120.085 63.0363C120.306 62.9308 120.498 62.7101 120.642 62.4318C120.834 62.0768 120.862 61.904 120.815 61.3763C120.786 60.9828 120.699 60.6662 120.584 60.5126C120.488 60.3879 120.258 60.2056 120.076 60.1096C119.845 59.9944 119.519 59.9369 118.953 59.9369ZM176.317 59.9369L177.248 59.9465C178.035 59.9465 178.265 59.9849 178.668 60.1672C178.927 60.2919 179.282 60.5414 179.455 60.7237C179.618 60.8965 179.868 61.2611 179.992 61.5202C180.127 61.7889 180.28 62.2303 180.338 62.5086C180.395 62.7868 180.443 63.2954 180.443 63.6313C180.443 63.9767 180.395 64.4853 180.338 64.7636C180.28 65.0419 180.127 65.4833 179.992 65.7424C179.868 66.0111 179.618 66.3757 179.455 66.5484C179.282 66.7308 178.927 66.9802 178.668 67.105C178.265 67.2873 178.035 67.3257 176.317 67.3257V63.6313V59.9369ZM65.5614 62.5757C65.2448 61.4722 64.9473 60.503 64.9089 60.4167C64.8513 60.3207 64.7554 60.5414 64.5827 61.0884C64.4579 61.5394 64.17 62.5086 63.9493 63.2475C63.8756 63.5055 63.803 63.7566 63.739 63.9781C63.6197 64.3908 63.53 64.7012 63.5175 64.7636C63.4695 64.9171 63.5847 64.9267 64.8609 64.9267C66.1468 64.9267 66.2523 64.9171 66.1948 64.7636C66.1886 64.743 66.1709 64.6817 66.1437 64.5872L66.1062 64.4563L66.1051 64.4528L66.1044 64.4502C65.9916 64.0576 65.7881 63.3491 65.5614 62.5757ZM84.6764 60.4167C84.7148 60.503 85.0123 61.4722 85.3289 62.5757C85.5556 63.3491 85.7591 64.0576 85.8719 64.4502L85.8727 64.4528L85.8737 64.4563L85.8749 64.4607C85.9228 64.6273 85.9537 64.7349 85.9623 64.7636C86.0199 64.9171 85.9143 64.9267 84.6284 64.9267C83.3522 64.9267 83.2371 64.9171 83.285 64.7636C83.2975 64.7012 83.3872 64.3909 83.5065 63.9781L83.5078 63.9738L83.5091 63.9692C83.5725 63.7499 83.6441 63.5021 83.7168 63.2475C83.9375 62.5086 84.2254 61.5394 84.3502 61.0884C84.5229 60.5414 84.6189 60.3207 84.6764 60.4167ZM125.536 62.5757C125.219 61.4722 124.922 60.503 124.883 60.4167C124.826 60.3207 124.73 60.5414 124.557 61.0884C124.432 61.5394 124.144 62.5086 123.924 63.2475C123.893 63.3553 123.862 63.462 123.832 63.5657L123.72 63.9538L123.715 63.971L123.714 63.9743L123.713 63.9778L123.713 63.9785L123.712 63.9817L123.712 63.9835L123.711 63.9844C123.593 64.394 123.504 64.7015 123.492 64.7636C123.444 64.9171 123.559 64.9267 124.835 64.9267C126.121 64.9267 126.227 64.9171 126.169 64.7636C126.164 64.7485 126.154 64.7115 126.138 64.6555L126.08 64.4561C125.968 64.0646 125.763 63.3529 125.536 62.5757ZM164.226 60.4167C164.265 60.503 164.562 61.4722 164.879 62.5757C165.106 63.35 165.309 64.0592 165.422 64.4516L165.423 64.4552C165.472 64.6249 165.503 64.7346 165.512 64.7636C165.57 64.9171 165.464 64.9267 164.178 64.9267C162.902 64.9267 162.787 64.9171 162.835 64.7636C162.847 64.7013 162.937 64.3922 163.056 63.9808L163.057 63.9774L163.059 63.9696C163.122 63.7502 163.194 63.5022 163.267 63.2475C163.487 62.5086 163.775 61.5394 163.9 61.0884C164.073 60.5414 164.169 60.3207 164.226 60.4167ZM44.6328 63.7848L43.702 63.7752V65.5505V67.3257C45.3237 67.3257 45.5444 67.2873 45.8611 67.1146C46.1106 66.9706 46.3217 66.7499 46.4656 66.4621C46.648 66.107 46.6863 65.9247 46.648 65.4065C46.6288 65.0227 46.5424 64.6676 46.4273 64.4757C46.3313 64.303 46.0914 64.0823 45.9091 63.9767C45.6404 63.8232 45.3909 63.7848 44.6328 63.7848ZM76.9038 63.7752L77.8346 63.7848C78.5927 63.7848 78.8421 63.8232 79.1108 63.9767C79.2931 64.0823 79.533 64.303 79.629 64.4757C79.7442 64.6676 79.8305 65.0227 79.8497 65.4065C79.8881 65.9247 79.8497 66.107 79.6674 66.4621C79.5234 66.7499 79.3123 66.9706 79.0628 67.1146C78.7462 67.2873 78.5255 67.3257 76.9038 67.3257V65.5505V63.7752ZM116.266 72.8529C115.93 72.613 115.729 72.5555 115.259 72.5267C114.788 72.5075 114.577 72.5459 114.241 72.7186C114.011 72.8433 113.694 73.0832 113.541 73.256C113.397 73.4287 113.186 73.7262 113.09 73.9277C112.994 74.1292 112.831 74.5418 112.735 74.8585C112.62 75.2615 112.562 75.7509 112.562 76.4418C112.562 77.2095 112.61 77.6221 112.764 78.1211C112.879 78.4953 113.119 79.0135 113.291 79.2726C113.464 79.5317 113.8 79.8771 114.021 80.0402C114.337 80.2609 114.577 80.3377 114.98 80.3665C115.393 80.3953 115.633 80.3569 115.959 80.213C116.199 80.0978 116.535 79.8579 116.698 79.666C116.871 79.4837 117.12 79.119 117.245 78.8695C117.37 78.62 117.552 78.0443 117.638 77.5933C117.753 77.0271 117.792 76.5665 117.753 76.058C117.725 75.6645 117.609 75.06 117.504 74.7145C117.398 74.3787 117.168 73.8797 116.995 73.6206C116.823 73.3519 116.487 73.0065 116.266 72.8529ZM82.6613 72.7954H83.4482C84.0143 72.7954 84.3406 72.8529 84.5805 72.9681C84.8012 73.0736 84.9931 73.2847 85.137 73.563C85.3289 73.9277 85.3577 74.0908 85.3098 74.5706C85.281 74.8873 85.1946 75.2519 85.1082 75.3671C85.0315 75.4822 84.8204 75.6645 84.6476 75.7701C84.4077 75.9236 84.1678 75.962 82.6613 75.962V74.3787V72.7954ZM167.796 72.7954H167.009V74.4267V76.058C168.362 76.058 168.688 76.01 168.928 75.8948C169.149 75.7893 169.341 75.5686 169.485 75.2903C169.677 74.9352 169.706 74.7625 169.658 74.2347C169.629 73.8413 169.542 73.5246 169.427 73.3711C169.331 73.2464 169.101 73.064 168.919 72.9681C168.688 72.8529 168.362 72.7954 167.796 72.7954ZM172.575 72.7954H173.362C173.928 72.7954 174.254 72.8529 174.484 72.9681C174.667 73.064 174.897 73.2464 174.993 73.3711C175.108 73.5246 175.194 73.8413 175.223 74.2347C175.271 74.7625 175.242 74.9352 175.05 75.2903C174.906 75.5686 174.715 75.7893 174.494 75.8948C174.254 76.01 173.928 76.058 172.575 76.058V74.4267V72.7954ZM46.0818 75.4342C45.7651 74.3307 45.4677 73.3615 45.4293 73.2751C45.3717 73.1792 45.2757 73.3999 45.103 73.9469C44.9783 74.3979 44.6904 75.3671 44.4697 76.1059C44.396 76.364 44.3234 76.615 44.2594 76.8365C44.1401 77.2493 44.0504 77.5596 44.0379 77.6221C43.9899 77.7756 44.1051 77.7852 45.3813 77.7852C46.6672 77.7852 46.7727 77.7756 46.7151 77.6221C46.7111 77.6086 46.7021 77.5778 46.6888 77.5316C46.6736 77.4788 46.6527 77.406 46.6269 77.3162L46.6262 77.3138C46.5138 76.9222 46.3095 76.2109 46.0818 75.4342ZM82.6613 76.6337L83.5921 76.6433C84.3502 76.6433 84.5997 76.6817 84.8683 76.8352C85.0507 76.9408 85.2906 77.1615 85.3865 77.3342C85.5017 77.5261 85.588 77.8812 85.6072 78.265C85.6456 78.7832 85.6072 78.9655 85.4249 79.3205C85.281 79.6084 85.0699 79.8291 84.8204 79.9731C84.5037 80.1458 84.283 80.1842 82.6613 80.1842V78.4089V76.6337Z" fill="white"/>
</svg>
