<svg width="358" height="64" viewBox="0 0 358 64" fill="none" xmlns="http://www.w3.org/2000/svg">
<rect x="0.5" y="0.5" width="357" height="63" rx="7.5" fill="#F7F8F9"/>
<path d="M28.7669 48.48C25.9189 48.48 23.4709 48.016 21.4229 47.088C19.3749 46.128 17.7749 44.672 16.6229 42.72C15.4709 40.736 14.8469 38.272 14.7509 35.328C14.7189 33.952 14.7029 32.592 14.7029 31.248C14.7029 29.904 14.7189 28.528 14.7509 27.12C14.8469 24.208 15.4869 21.776 16.6709 19.824C17.8549 17.872 19.4709 16.4 21.5189 15.408C23.5989 14.416 26.0149 13.92 28.7669 13.92C31.5189 13.92 33.9349 14.416 36.0149 15.408C38.0949 16.4 39.7269 17.872 40.9109 19.824C42.0949 21.776 42.7349 24.208 42.8309 27.12C42.8949 28.528 42.9269 29.904 42.9269 31.248C42.9269 32.592 42.8949 33.952 42.8309 35.328C42.7349 38.272 42.1109 40.736 40.9589 42.72C39.8069 44.672 38.1909 46.128 36.1109 47.088C34.0629 48.016 31.6149 48.48 28.7669 48.48ZM28.7669 42.96C30.8469 42.96 32.5429 42.352 33.8549 41.136C35.1669 39.888 35.8709 37.872 35.9669 35.088C36.0309 33.68 36.0629 32.384 36.0629 31.2C36.0629 29.984 36.0309 28.688 35.9669 27.312C35.9029 25.456 35.5509 23.952 34.9109 22.8C34.3029 21.616 33.4709 20.768 32.4149 20.256C31.3589 19.712 30.1429 19.44 28.7669 19.44C27.4229 19.44 26.2229 19.712 25.1669 20.256C24.1109 20.768 23.2629 21.616 22.6229 22.8C22.0149 23.952 21.6789 25.456 21.6149 27.312C21.5829 28.688 21.5669 29.984 21.5669 31.2C21.5669 32.384 21.5829 33.68 21.6149 35.088C21.7109 37.872 22.4149 39.888 23.7269 41.136C25.0389 42.352 26.7189 42.96 28.7669 42.96ZM55.5179 48.48C53.5659 48.48 51.8699 48.048 50.4299 47.184C49.0219 46.288 47.9339 45.04 47.1659 43.44C46.3979 41.808 46.0139 39.888 46.0139 37.68V24.192C46.0139 23.872 46.1259 23.6 46.3499 23.376C46.5739 23.152 46.8459 23.04 47.1659 23.04H51.3899C51.7419 23.04 52.0139 23.152 52.2059 23.376C52.4299 23.6 52.5419 23.872 52.5419 24.192V37.392C52.5419 41.36 54.2859 43.344 57.7739 43.344C59.4379 43.344 60.7499 42.816 61.7099 41.76C62.7019 40.704 63.1979 39.248 63.1979 37.392V24.192C63.1979 23.872 63.3099 23.6 63.5339 23.376C63.7579 23.152 64.0299 23.04 64.3499 23.04H68.5739C68.8939 23.04 69.1659 23.152 69.3899 23.376C69.6139 23.6 69.7259 23.872 69.7259 24.192V46.848C69.7259 47.168 69.6139 47.44 69.3899 47.664C69.1659 47.888 68.8939 48 68.5739 48H64.6859C64.3339 48 64.0459 47.888 63.8219 47.664C63.6299 47.44 63.5339 47.168 63.5339 46.848V44.88C62.6699 46 61.5979 46.88 60.3179 47.52C59.0379 48.16 57.4379 48.48 55.5179 48.48ZM74.8184 48C74.4984 48 74.2264 47.888 74.0024 47.664C73.7784 47.44 73.6664 47.168 73.6664 46.848V24.24C73.6664 23.888 73.7784 23.6 74.0024 23.376C74.2264 23.152 74.4984 23.04 74.8184 23.04H78.7064C79.0264 23.04 79.2984 23.152 79.5224 23.376C79.7784 23.6 79.9064 23.888 79.9064 24.24V26.208C80.6424 25.184 81.5864 24.4 82.7384 23.856C83.9224 23.312 85.2824 23.04 86.8184 23.04H88.7864C89.1384 23.04 89.4104 23.152 89.6024 23.376C89.8264 23.6 89.9384 23.872 89.9384 24.192V27.648C89.9384 27.968 89.8264 28.24 89.6024 28.464C89.4104 28.688 89.1384 28.8 88.7864 28.8H85.0424C83.5064 28.8 82.3064 29.232 81.4424 30.096C80.6104 30.96 80.1944 32.144 80.1944 33.648V46.848C80.1944 47.168 80.0824 47.44 79.8584 47.664C79.6344 47.888 79.3464 48 78.9944 48H74.8184Z" fill="#B8C0CC"/>
<path d="M113.387 48.48C110.411 48.48 107.883 47.968 105.803 46.944C103.755 45.888 102.187 44.4 101.099 42.48C100.011 40.528 99.4028 38.192 99.2748 35.472C99.2428 34.16 99.2268 32.752 99.2268 31.248C99.2268 29.744 99.2428 28.304 99.2748 26.928C99.4028 24.24 100.011 21.92 101.099 19.968C102.219 18.016 103.803 16.528 105.851 15.504C107.931 14.448 110.443 13.92 113.387 13.92C115.563 13.92 117.515 14.208 119.243 14.784C120.971 15.36 122.443 16.16 123.659 17.184C124.875 18.176 125.819 19.344 126.491 20.688C127.163 22.032 127.515 23.488 127.547 25.056C127.579 25.344 127.483 25.584 127.259 25.776C127.067 25.968 126.827 26.064 126.539 26.064H121.979C121.627 26.064 121.339 25.984 121.115 25.824C120.891 25.632 120.731 25.328 120.635 24.912C120.123 22.8 119.243 21.36 117.995 20.592C116.747 19.824 115.195 19.44 113.339 19.44C111.195 19.44 109.483 20.048 108.203 21.264C106.923 22.448 106.235 24.416 106.139 27.168C106.043 29.792 106.043 32.48 106.139 35.232C106.235 37.984 106.923 39.968 108.203 41.184C109.483 42.368 111.195 42.96 113.339 42.96C115.195 42.96 116.747 42.576 117.995 41.808C119.243 41.008 120.123 39.568 120.635 37.488C120.731 37.04 120.891 36.736 121.115 36.576C121.339 36.416 121.627 36.336 121.979 36.336H126.539C126.827 36.336 127.067 36.432 127.259 36.624C127.483 36.816 127.579 37.056 127.547 37.344C127.515 38.912 127.163 40.368 126.491 41.712C125.819 43.056 124.875 44.24 123.659 45.264C122.443 46.256 120.971 47.04 119.243 47.616C117.515 48.192 115.563 48.48 113.387 48.48ZM141.303 48.48C138.743 48.48 136.583 48.032 134.823 47.136C133.095 46.24 131.767 44.976 130.839 43.344C129.943 41.712 129.431 39.808 129.303 37.632C129.271 37.056 129.255 36.352 129.255 35.52C129.255 34.688 129.271 33.984 129.303 33.408C129.431 31.2 129.959 29.296 130.887 27.696C131.847 26.064 133.191 24.8 134.919 23.904C136.679 23.008 138.807 22.56 141.303 22.56C143.799 22.56 145.911 23.008 147.639 23.904C149.399 24.8 150.743 26.064 151.671 27.696C152.631 29.296 153.175 31.2 153.303 33.408C153.335 33.984 153.351 34.688 153.351 35.52C153.351 36.352 153.335 37.056 153.303 37.632C153.175 39.808 152.647 41.712 151.719 43.344C150.823 44.976 149.495 46.24 147.735 47.136C146.007 48.032 143.863 48.48 141.303 48.48ZM141.303 43.728C142.999 43.728 144.311 43.2 145.239 42.144C146.167 41.056 146.679 39.472 146.775 37.392C146.807 36.912 146.823 36.288 146.823 35.52C146.823 34.752 146.807 34.128 146.775 33.648C146.679 31.6 146.167 30.032 145.239 28.944C144.311 27.856 142.999 27.312 141.303 27.312C139.607 27.312 138.295 27.856 137.367 28.944C136.439 30.032 135.927 31.6 135.831 33.648C135.799 34.128 135.783 34.752 135.783 35.52C135.783 36.288 135.799 36.912 135.831 37.392C135.927 39.472 136.439 41.056 137.367 42.144C138.295 43.2 139.607 43.728 141.303 43.728ZM157.422 48C157.102 48 156.83 47.888 156.606 47.664C156.382 47.44 156.27 47.168 156.27 46.848V24.192C156.27 23.872 156.382 23.6 156.606 23.376C156.83 23.152 157.102 23.04 157.422 23.04H161.166C161.486 23.04 161.758 23.152 161.982 23.376C162.206 23.6 162.318 23.872 162.318 24.192V25.824C162.99 24.928 163.886 24.176 165.006 23.568C166.158 22.928 167.518 22.592 169.086 22.56C172.734 22.496 175.278 23.92 176.718 26.832C177.454 25.552 178.51 24.528 179.886 23.76C181.294 22.96 182.846 22.56 184.542 22.56C186.206 22.56 187.71 22.944 189.054 23.712C190.43 24.48 191.502 25.648 192.27 27.216C193.07 28.752 193.47 30.704 193.47 33.072V46.848C193.47 47.168 193.358 47.44 193.134 47.664C192.91 47.888 192.638 48 192.318 48H188.382C188.062 48 187.79 47.888 187.566 47.664C187.342 47.44 187.23 47.168 187.23 46.848V33.456C187.23 32.016 187.022 30.88 186.606 30.048C186.19 29.184 185.63 28.576 184.926 28.224C184.222 27.872 183.438 27.696 182.574 27.696C181.87 27.696 181.166 27.872 180.462 28.224C179.758 28.576 179.182 29.184 178.734 30.048C178.286 30.88 178.062 32.016 178.062 33.456V46.848C178.062 47.168 177.95 47.44 177.726 47.664C177.502 47.888 177.23 48 176.91 48H172.974C172.622 48 172.334 47.888 172.11 47.664C171.918 47.44 171.822 47.168 171.822 46.848V33.456C171.822 32.016 171.598 30.88 171.15 30.048C170.702 29.184 170.126 28.576 169.422 28.224C168.718 27.872 167.966 27.696 167.166 27.696C166.43 27.696 165.71 27.888 165.006 28.272C164.302 28.624 163.726 29.216 163.278 30.048C162.83 30.88 162.606 32.016 162.606 33.456V46.848C162.606 47.168 162.494 47.44 162.27 47.664C162.046 47.888 161.774 48 161.454 48H157.422ZM198.334 48C198.014 48 197.742 47.888 197.518 47.664C197.294 47.44 197.182 47.168 197.182 46.848V24.192C197.182 23.872 197.294 23.6 197.518 23.376C197.742 23.152 198.014 23.04 198.334 23.04H202.078C202.398 23.04 202.67 23.152 202.894 23.376C203.118 23.6 203.23 23.872 203.23 24.192V25.824C203.902 24.928 204.798 24.176 205.918 23.568C207.07 22.928 208.43 22.592 209.998 22.56C213.646 22.496 216.19 23.92 217.63 26.832C218.366 25.552 219.422 24.528 220.798 23.76C222.206 22.96 223.758 22.56 225.454 22.56C227.118 22.56 228.622 22.944 229.966 23.712C231.342 24.48 232.414 25.648 233.182 27.216C233.982 28.752 234.382 30.704 234.382 33.072V46.848C234.382 47.168 234.27 47.44 234.046 47.664C233.822 47.888 233.55 48 233.23 48H229.294C228.974 48 228.702 47.888 228.478 47.664C228.254 47.44 228.142 47.168 228.142 46.848V33.456C228.142 32.016 227.934 30.88 227.518 30.048C227.102 29.184 226.542 28.576 225.838 28.224C225.134 27.872 224.35 27.696 223.486 27.696C222.782 27.696 222.078 27.872 221.374 28.224C220.67 28.576 220.094 29.184 219.646 30.048C219.198 30.88 218.974 32.016 218.974 33.456V46.848C218.974 47.168 218.862 47.44 218.638 47.664C218.414 47.888 218.142 48 217.822 48H213.886C213.534 48 213.246 47.888 213.022 47.664C212.83 47.44 212.734 47.168 212.734 46.848V33.456C212.734 32.016 212.51 30.88 212.062 30.048C211.614 29.184 211.038 28.576 210.334 28.224C209.63 27.872 208.878 27.696 208.078 27.696C207.342 27.696 206.622 27.888 205.918 28.272C205.214 28.624 204.638 29.216 204.19 30.048C203.742 30.88 203.518 32.016 203.518 33.456V46.848C203.518 47.168 203.406 47.44 203.182 47.664C202.958 47.888 202.686 48 202.366 48H198.334ZM247.359 48.48C245.407 48.48 243.711 48.048 242.271 47.184C240.863 46.288 239.775 45.04 239.007 43.44C238.239 41.808 237.855 39.888 237.855 37.68V24.192C237.855 23.872 237.967 23.6 238.191 23.376C238.415 23.152 238.687 23.04 239.007 23.04H243.231C243.583 23.04 243.855 23.152 244.047 23.376C244.271 23.6 244.383 23.872 244.383 24.192V37.392C244.383 41.36 246.127 43.344 249.615 43.344C251.279 43.344 252.591 42.816 253.551 41.76C254.543 40.704 255.039 39.248 255.039 37.392V24.192C255.039 23.872 255.151 23.6 255.375 23.376C255.599 23.152 255.871 23.04 256.191 23.04H260.415C260.735 23.04 261.007 23.152 261.231 23.376C261.455 23.6 261.567 23.872 261.567 24.192V46.848C261.567 47.168 261.455 47.44 261.231 47.664C261.007 47.888 260.735 48 260.415 48H256.527C256.175 48 255.887 47.888 255.663 47.664C255.471 47.44 255.375 47.168 255.375 46.848V44.88C254.511 46 253.439 46.88 252.159 47.52C250.879 48.16 249.279 48.48 247.359 48.48ZM266.659 48C266.339 48 266.067 47.888 265.843 47.664C265.619 47.44 265.507 47.168 265.507 46.848V24.192C265.507 23.872 265.619 23.6 265.843 23.376C266.067 23.152 266.339 23.04 266.659 23.04H270.595C270.915 23.04 271.187 23.152 271.411 23.376C271.635 23.6 271.747 23.872 271.747 24.192V26.16C272.579 25.136 273.635 24.288 274.915 23.616C276.227 22.912 277.843 22.56 279.763 22.56C281.715 22.56 283.411 23.008 284.851 23.904C286.291 24.768 287.395 26 288.163 27.6C288.963 29.2 289.363 31.12 289.363 33.36V46.848C289.363 47.168 289.251 47.44 289.027 47.664C288.803 47.888 288.531 48 288.211 48H283.987C283.667 48 283.395 47.888 283.171 47.664C282.947 47.44 282.835 47.168 282.835 46.848V33.648C282.835 31.792 282.371 30.336 281.443 29.28C280.547 28.224 279.235 27.696 277.507 27.696C275.843 27.696 274.515 28.224 273.523 29.28C272.531 30.336 272.035 31.792 272.035 33.648V46.848C272.035 47.168 271.923 47.44 271.699 47.664C271.475 47.888 271.203 48 270.883 48H266.659ZM294.212 48C293.892 48 293.62 47.888 293.396 47.664C293.172 47.44 293.06 47.168 293.06 46.848V24.192C293.06 23.872 293.172 23.6 293.396 23.376C293.62 23.152 293.892 23.04 294.212 23.04H298.196C298.548 23.04 298.82 23.152 299.012 23.376C299.236 23.6 299.348 23.872 299.348 24.192V46.848C299.348 47.168 299.236 47.44 299.012 47.664C298.82 47.888 298.548 48 298.196 48H294.212ZM294.02 18.912C293.668 18.912 293.38 18.816 293.156 18.624C292.964 18.4 292.868 18.112 292.868 17.76V14.304C292.868 13.984 292.964 13.712 293.156 13.488C293.38 13.264 293.668 13.152 294.02 13.152H298.388C298.74 13.152 299.028 13.264 299.252 13.488C299.476 13.712 299.588 13.984 299.588 14.304V17.76C299.588 18.112 299.476 18.4 299.252 18.624C299.028 18.816 298.74 18.912 298.388 18.912H294.02ZM314.596 48C312.676 48 311.06 47.664 309.748 46.992C308.436 46.32 307.46 45.328 306.82 44.016C306.18 42.672 305.86 41.008 305.86 39.024V28.128H302.068C301.748 28.128 301.476 28.016 301.252 27.792C301.028 27.568 300.916 27.296 300.916 26.976V24.192C300.916 23.872 301.028 23.6 301.252 23.376C301.476 23.152 301.748 23.04 302.068 23.04H305.86V15.072C305.86 14.752 305.956 14.48 306.148 14.256C306.372 14.032 306.66 13.92 307.012 13.92H310.9C311.22 13.92 311.492 14.032 311.716 14.256C311.94 14.48 312.052 14.752 312.052 15.072V23.04H318.052C318.372 23.04 318.644 23.152 318.868 23.376C319.092 23.6 319.204 23.872 319.204 24.192V26.976C319.204 27.296 319.092 27.568 318.868 27.792C318.644 28.016 318.372 28.128 318.052 28.128H312.052V38.544C312.052 39.856 312.276 40.88 312.724 41.616C313.204 42.352 314.02 42.72 315.172 42.72H318.484C318.804 42.72 319.076 42.832 319.3 43.056C319.524 43.28 319.636 43.552 319.636 43.872V46.848C319.636 47.168 319.524 47.44 319.3 47.664C319.076 47.888 318.804 48 318.484 48H314.596ZM326.007 57.12C325.751 57.12 325.527 57.024 325.335 56.832C325.143 56.64 325.047 56.416 325.047 56.16C325.047 56.032 325.047 55.904 325.047 55.776C325.079 55.68 325.143 55.552 325.239 55.392L328.983 46.512L319.767 24.768C319.639 24.448 319.575 24.224 319.575 24.096C319.607 23.808 319.719 23.568 319.911 23.376C320.103 23.152 320.343 23.04 320.631 23.04H324.519C324.903 23.04 325.191 23.136 325.383 23.328C325.575 23.52 325.719 23.728 325.815 23.952L332.199 39.648L338.775 23.952C338.871 23.696 339.015 23.488 339.207 23.328C339.399 23.136 339.687 23.04 340.071 23.04H343.911C344.167 23.04 344.391 23.136 344.583 23.328C344.807 23.52 344.919 23.744 344.919 24C344.919 24.192 344.855 24.448 344.727 24.768L331.143 56.208C331.015 56.464 330.855 56.672 330.663 56.832C330.471 57.024 330.183 57.12 329.799 57.12H326.007Z" fill="#64748B"/>
<rect x="0.5" y="0.5" width="357" height="63" rx="7.5" stroke="#64748B" stroke-dasharray="8 5"/>
</svg>
