<svg width="48" height="56" viewBox="0 0 48 56" fill="none" xmlns="http://www.w3.org/2000/svg">
<path d="M13.7333 22.0312V33.9631L23.9581 39.9288V27.9972L13.7333 22.0312Z" fill="#5A5A89"/>
<path d="M34.1883 22.0312L23.9635 27.9972V39.9288L34.1883 33.9631V22.0312Z" fill="#383874"/>
<path d="M13.7333 22.0341L23.9581 28L34.1829 22.0341L23.9581 16.0684L13.7333 22.0341Z" fill="#8676FF"/>
<path d="M13.8026 50.0512L23.9938 55.9974V47.9433L13.8026 41.9971V50.0512Z" fill="#4b4b4b"/>
<path d="M0 42.0045L6.90183 46.0313V18.0309L0 14.0039V42.0045Z" fill="#4b4b4b"/>
<path d="M41.0981 18.0309V37.9775L30.9069 43.9238L37.8087 47.9508L47.9999 42.0045V14.0039L41.0981 18.0309Z" fill="#4b4b4b"/>
<path d="M23.9788 47.9463V56.0002L30.8806 51.9733L23.9788 47.9463Z" fill="#4b4b4b"/>
<path d="M41.0883 18.0275L47.9898 14.0003L23.9949 0L0 14.0003L6.90183 18.0273L23.9949 8.05411L41.0883 18.0275Z" fill="#4b4b4b"/>
</svg>
